<svg width="24" height="24" viewBox="0 0 24 24" fill="none" xmlns="http://www.w3.org/2000/svg">
<path fill-rule="evenodd" clip-rule="evenodd" d="M9.376 0C9.46245 0.0195464 9.54934 0.0376527 9.63625 0.0557608C9.81515 0.0930394 9.99409 0.130326 10.1692 0.1802C12.2137 0.761218 13.6318 2.703 13.5307 4.77277C13.4221 6.98148 11.8803 8.77506 9.74146 9.16914C9.4821 9.21714 9.21433 9.23819 8.94992 9.23903C6.29492 9.24409 3.63908 9.24493 0.984079 9.24156C0.289383 9.24072 -0.160275 8.63191 0.0536073 8.00458C0.184968 7.6206 0.528527 7.37977 0.973974 7.37051C1.18732 7.3658 1.40025 7.36686 1.61335 7.36792C1.70472 7.36837 1.79612 7.36883 1.8876 7.36883C2.57213 7.36883 3.25665 7.36919 3.94115 7.36956H3.94168C5.58437 7.37043 7.22694 7.3713 8.86909 7.36714C10.1877 7.36378 11.2706 6.51835 11.5763 5.27211C11.9401 3.78672 11.0332 2.31986 9.51831 1.94599C8.09608 1.59485 6.59638 2.51269 6.24356 3.9585C6.19051 4.1766 6.16946 4.40479 6.1543 4.62962C6.11809 5.17443 5.72317 5.57104 5.20951 5.56346C4.67818 5.55588 4.27652 5.12475 4.27988 4.5631C4.29336 2.66679 5.53286 0.919525 7.3357 0.283773C7.57812 0.198583 7.83025 0.141344 8.08232 0.0841164C8.2015 0.0570595 8.32067 0.0300049 8.4388 0H9.376ZM23.9512 8.99786L23.9512 8.99797L23.9512 8.99798C23.9171 9.17161 23.8831 9.34522 23.8367 9.51523C23.286 11.5345 21.4773 12.9289 19.3763 12.9314C15.6495 12.9366 11.9226 12.9354 8.19573 12.9341C7.04878 12.9337 5.90182 12.9333 4.75487 12.9331C4.16796 12.9331 3.74777 12.5332 3.75198 11.9883C3.75619 11.4452 4.17638 11.0596 4.77087 11.0596C6.84686 11.0592 8.92284 11.0593 10.9988 11.0594H11.006C13.7703 11.0595 16.5346 11.0597 19.2989 11.0587C20.7615 11.0587 21.8806 10.0937 22.1021 8.65044C22.3277 7.18021 21.1354 5.68388 19.6534 5.57609C18.0004 5.45568 16.7087 6.60087 16.6295 8.25551C16.6001 8.86853 16.2068 9.26093 15.6427 9.23988C15.1012 9.22051 14.7341 8.79696 14.761 8.18899C14.7753 7.87069 14.8056 7.54819 14.8789 7.23915C15.3757 5.13149 17.3487 3.53916 19.7485 3.69663C21.8435 3.83388 23.6674 5.54325 23.9563 7.69723C23.9604 7.72798 23.9724 7.75789 23.9845 7.78785L23.9845 7.78788C23.9896 7.80058 23.9947 7.81329 23.9992 7.82607C23.9984 8.13847 23.9984 8.45087 23.9984 8.76327C23.9819 8.84125 23.9665 8.91956 23.9512 8.99786ZM10.6424 14.7485C9.93002 14.749 9.21764 14.7494 8.50517 14.7494H8.49686C6.04756 14.7494 3.59743 14.7494 1.14898 14.7503C1.13456 14.7503 1.12012 14.7502 1.10567 14.7502C1.01887 14.75 0.931623 14.7498 0.844994 14.757C0.287553 14.8033 -0.104844 15.3574 0.0324107 15.8997C0.153667 16.3763 0.51575 16.6247 1.09508 16.6247H14.8484C14.9428 16.6247 15.0373 16.6234 15.1318 16.6221C15.3575 16.6189 15.5833 16.6157 15.8083 16.6306C16.9603 16.7055 17.7939 17.2773 18.2267 18.3391C18.6637 19.4119 18.4701 20.4249 17.6659 21.2627C16.8702 22.0922 15.8824 22.3246 14.7886 21.96C13.6821 21.5903 12.9748 20.5832 12.9403 19.3942C12.9243 18.8418 12.5201 18.4284 11.9997 18.4301C11.4684 18.4326 11.0591 18.8612 11.0684 19.4228C11.0726 19.6637 11.0886 19.9079 11.1324 20.1445C11.5921 22.6252 13.768 24.2335 16.2731 23.9514C18.8852 23.6567 20.7605 21.0665 20.2283 18.489C19.7694 16.2643 17.921 14.757 15.6281 14.7511C13.966 14.7464 12.3043 14.7475 10.6424 14.7485Z" fill="#FFFFFF"/>
</svg>
