<svg width="25" height="23" viewBox="0 0 25 23" fill="none" xmlns="http://www.w3.org/2000/svg">
<path fill-rule="evenodd" clip-rule="evenodd" d="M10.033 1.83259C8.66335 1.36329 7.22483 2.51997 7.61507 4.13703C6.61397 4.39209 5.90364 5.2631 6.18292 6.51161C4.96375 6.83043 4.39498 7.98456 4.82347 9.11829C4.75716 9.14252 4.68957 9.16802 4.62325 9.19353C4.21006 9.34784 3.89124 9.61565 3.67699 9.99823C3.24339 10.7736 3.37092 11.6115 4.02259 12.2746C4.22018 12.4756 4.42221 12.6715 4.63379 12.8768C4.74311 12.9828 4.85499 13.0913 4.97013 13.2043C4.93552 13.2316 4.90391 13.2554 4.87483 13.2773C4.81713 13.3207 4.76938 13.3566 4.72783 13.3981C3.62706 14.497 2.52702 15.5973 1.42662 16.6979C1.05965 17.065 0.692636 17.4321 0.325546 17.7991C0.309911 17.8148 0.293918 17.8303 0.277858 17.8459C0.24152 17.8811 0.204844 17.9167 0.171236 17.9547C-0.0493879 18.2021 -0.0570396 18.4712 0.149556 18.6727C0.353602 18.8729 0.617586 18.8602 0.867541 18.6357C0.901488 18.6054 0.933558 18.5725 0.965503 18.5397C0.979162 18.5257 0.992797 18.5118 1.00655 18.498C2.50883 16.997 4.01112 15.496 5.51085 13.9911C5.61925 13.8827 5.69322 13.8419 5.859 13.9146C7.01441 14.4196 8.30755 13.6341 8.39937 12.3741C8.4134 12.1815 8.50139 12.1522 8.6557 12.1382C9.36603 12.0757 9.87232 11.7033 10.1644 11.0644C10.2415 10.8961 10.2813 10.7098 10.3226 10.5162C10.3414 10.428 10.3606 10.3384 10.3837 10.2482C10.8772 10.2418 11.3338 10.0735 11.7036 9.70874C12.0811 9.33764 12.2329 8.86451 12.2584 8.35184C13.8589 8.31231 14.7018 6.61363 13.7607 5.32559C13.7748 5.31043 13.789 5.295 13.8033 5.27943C13.8421 5.23738 13.8817 5.19438 13.9226 5.15343C14.9059 4.16891 15.8904 3.18439 16.8749 2.20115C16.8807 2.19533 16.8865 2.18952 16.8923 2.18372C16.9386 2.1373 16.9844 2.09133 17.0343 2.04939C17.5381 1.62599 18.2956 1.8734 18.4384 2.51359C18.5149 2.85409 18.3887 3.13338 18.1476 3.37313C17.473 4.04521 16.7997 4.71856 16.1276 5.39318C16.0587 5.46077 15.9899 5.53346 15.9376 5.61381C15.8164 5.79872 15.8445 6.0423 15.9924 6.19916C16.148 6.36367 16.3954 6.39811 16.5931 6.27185C16.6747 6.21957 16.7461 6.15198 16.815 6.08311C17.334 5.5679 17.853 5.05013 18.3695 4.53109C18.5889 4.31047 18.8465 4.18676 19.1602 4.24033C19.5007 4.29771 19.743 4.49411 19.8463 4.82568C19.9509 5.16363 19.8718 5.46842 19.6193 5.72221C19.4213 5.92066 19.223 6.11894 19.0246 6.31731C18.6938 6.64794 18.3629 6.97883 18.0329 7.31121C17.9602 7.38518 17.8849 7.46424 17.8339 7.55479C17.7217 7.75628 17.7536 7.95395 17.913 8.11464C18.0711 8.27405 18.2688 8.31358 18.4716 8.20391C18.5633 8.1555 18.641 8.07909 18.7162 8.00519L18.7164 8.00496C19.0082 7.71622 19.2984 7.42584 19.5882 7.13579C19.6607 7.06331 19.7331 6.99084 19.8055 6.91842C20.0389 6.68632 20.3118 6.56262 20.6446 6.63659C21.318 6.78707 21.5552 7.57647 21.0731 8.08913C20.8405 8.33725 20.598 8.57646 20.3556 8.81558C20.1981 8.97098 20.0406 9.12634 19.8858 9.28407C19.6321 9.54296 19.6168 9.8299 19.8336 10.0378C20.0427 10.2393 20.3169 10.2201 20.5707 9.9791C20.6522 9.90169 20.7317 9.82174 20.8112 9.74175C20.9268 9.62539 21.0425 9.50895 21.165 9.40012C21.4417 9.15527 21.8243 9.12211 22.1418 9.2981C22.4594 9.47409 22.6519 9.81842 22.5576 10.1806C22.5015 10.3948 22.3675 10.6142 22.2107 10.7736C21.4107 11.5825 20.6063 12.3862 19.8018 13.1899C19.1212 13.87 18.4405 14.55 17.7625 15.2333C16.5331 16.4716 15.0742 17.2074 13.3194 17.3158C13.0644 17.3311 12.8603 17.4255 12.6767 17.6117C11.6994 18.599 10.7188 19.5831 9.73827 20.5671C9.34589 20.9609 8.9535 21.3547 8.56133 21.7487C8.49374 21.8176 8.42615 21.8903 8.37386 21.9719C8.26674 22.1389 8.27312 22.3111 8.38151 22.4769C8.48991 22.6427 8.65187 22.7345 8.83807 22.6809C8.98472 22.6388 9.13266 22.547 9.24233 22.4386C10.2307 21.4605 11.2139 20.4747 12.1908 19.4838C12.3107 19.3614 12.391 19.3537 12.5389 19.4404C13.2646 19.8638 14.0514 20.0602 14.8931 20.0526C15.0117 20.0513 15.1622 20.1112 15.2476 20.1954C15.7762 20.7123 16.2985 21.2349 16.8207 21.7574C17.0405 21.9774 17.2604 22.1974 17.4807 22.4169C17.5495 22.4858 17.6197 22.5547 17.7 22.6095C17.8939 22.7421 18.1451 22.7179 18.3058 22.5623C18.4779 22.3965 18.5022 22.1466 18.3581 21.94C18.307 21.8673 18.2433 21.8023 18.1808 21.7398C17.9688 21.527 17.7543 21.3166 17.5398 21.1062C17.0625 20.638 16.5852 20.17 16.1365 19.6764C15.7208 19.2198 15.2859 19.0005 14.6534 19.0527C14.1024 19.0987 13.5706 18.9048 13.0822 18.6179C13.3425 18.3106 13.3436 18.3105 13.6217 18.2816L13.6255 18.2812C15.2872 18.109 16.7767 17.5097 17.9831 16.3517C18.9516 15.4222 19.9099 14.4813 20.8595 13.5314C20.8887 13.6182 20.942 13.7046 21.0201 13.7846C21.3491 14.1225 23.6944 16.4563 24.0298 16.7879C24.4213 17.173 24.6763 17.1564 25.0002 16.7254V16.4333C24.5475 15.9678 22.0964 13.49 21.6348 13.036C21.5815 12.9835 21.5233 12.9472 21.4628 12.9257C21.984 12.4003 22.5027 11.8724 23.0192 11.3424C24.0152 10.3196 23.6046 8.78544 22.2553 8.29318C22.2318 8.28446 22.2094 8.27156 22.1834 8.25653C22.1713 8.24958 22.1585 8.24218 22.1444 8.23452C22.3586 7.68104 22.3624 7.1467 22.0844 6.62383C21.8077 6.10352 21.3639 5.80382 20.79 5.66737C20.9176 5.12537 20.892 4.61909 20.6038 4.14596C20.3169 3.67538 19.8897 3.40247 19.3592 3.28004C19.3644 3.24869 19.3687 3.22077 19.3728 3.19496C19.3786 3.15776 19.3837 3.12494 19.3898 3.09257C19.5262 2.38606 19.3311 1.78158 18.7853 1.3161C18.2318 0.844246 17.5954 0.740948 16.9157 1.00493C16.7614 1.06487 16.676 1.04957 16.5586 0.934791C15.9797 0.364739 15.2795 0.0344406 14.4646 0.0191372C13.5537 0.00163748 12.6428 0.00143281 11.7319 0.00122813C11.3815 0.00114941 11.0312 0.00107069 10.6809 7.95089e-06C10.1108 -0.00126733 9.95521 0.150491 9.96669 0.728195C9.97196 0.982157 9.99056 1.23612 10.0091 1.48966C10.0175 1.60407 10.0259 1.71839 10.033 1.83259ZM13.1064 6.84318C12.9611 7.17731 12.6894 7.34947 12.2864 7.41961C12.2216 7.38385 12.1526 7.35215 12.0837 7.32045C11.9412 7.25495 11.7987 7.18945 11.6922 7.08804C10.714 6.13412 9.75117 5.16618 8.79216 4.19442C8.43763 3.83479 8.44145 3.30427 8.7743 2.96759C9.11735 2.61944 9.64532 2.61817 10.0164 2.98545C10.9869 3.94574 11.951 4.9124 12.9139 5.88034C13.1855 6.15453 13.262 6.4861 13.1064 6.84318ZM14.9614 2.64528C14.3193 3.2871 13.6811 3.92496 13.0503 4.5566L11.8465 3.34508C11.9912 3.34508 12.1407 3.34541 12.2936 3.34574C12.6622 3.34655 13.0504 3.34741 13.438 3.3438C13.7964 3.33998 14.0144 3.14868 14.0144 2.85282C14.0144 2.55313 13.7989 2.36949 13.4367 2.36821C13.2771 2.36725 13.117 2.36883 12.9569 2.37043C12.6937 2.37304 12.4303 2.37566 12.1678 2.36693C11.4243 2.34398 10.8862 1.73057 10.964 0.976875H11.1973C11.5285 0.976875 11.8596 0.977159 12.1906 0.977442C12.8525 0.978009 13.5142 0.978576 14.1764 0.976875C14.8676 0.974325 15.4632 1.20515 15.9312 1.67573C15.6072 1.99972 15.2838 2.323 14.9614 2.64528ZM7.16617 5.62018C7.31283 5.28096 7.58574 5.11772 8.07672 5.09222C8.1068 5.10885 8.14669 5.12646 8.19201 5.14647C8.31005 5.19858 8.46492 5.26695 8.57918 5.3766C9.39792 6.16856 10.2013 6.97709 11.0009 7.78817C11.3606 8.1529 11.3593 8.67066 11.0226 9.01499C10.6847 9.35932 10.144 9.36187 9.77667 8.99969C8.96559 8.20008 8.16216 7.3941 7.36001 6.5843C7.08965 6.31011 7.01058 5.98109 7.16617 5.62018ZM5.7353 8.00369C5.88451 7.66956 6.15742 7.50123 6.65605 7.4872C6.68389 7.50286 6.72151 7.51985 6.76471 7.53936C6.87984 7.59135 7.0346 7.66124 7.14959 7.77159C7.80764 8.40158 8.44783 9.04815 9.08547 9.69854C9.44383 10.0645 9.4451 10.5836 9.11225 10.9254C8.77303 11.2735 8.23996 11.2786 7.86885 10.9152C7.21208 10.2737 6.56551 9.62202 5.92022 8.9678C5.64858 8.69362 5.57716 8.35949 5.7353 8.00369ZM7.41776 12.0542C7.44228 12.1183 7.46679 12.1823 7.49519 12.2427C7.41995 12.6151 7.25416 12.8702 6.93917 13.0168C6.63437 13.1609 6.31428 13.1456 6.0707 12.9186C5.55931 12.4442 5.0594 11.9532 4.58882 11.438C4.2853 11.1052 4.34779 10.5963 4.67044 10.2928C4.99181 9.99058 5.493 9.96508 5.82202 10.2737C6.30153 10.7239 6.76955 11.1881 7.2159 11.6714C7.31043 11.7738 7.36411 11.9141 7.41776 12.0542Z" fill="#FFFFFF"/>
</svg>
