<svg width="29" height="22" viewBox="0 0 29 22" fill="none" xmlns="http://www.w3.org/2000/svg">
<path d="M0 0.797976C0.223713 0.160209 0.791028 0.140434 1.3225 0.0811065C6.89307 -0.546772 12.1991 2.51723 14.4054 7.66262C14.7131 8.38196 14.8787 9.16186 15.1099 9.91457C15.1247 9.96401 15.1383 10.0147 15.1568 10.0839C15.4906 9.65254 15.786 9.22737 16.1246 8.8405C18.1652 6.50326 20.7459 5.23144 23.8322 4.96941C25.1893 4.85447 26.5192 5.0102 27.8306 5.36616C28.1952 5.46504 28.4535 5.6628 28.5314 6.0373C28.6105 6.41551 28.4461 6.70102 28.1445 6.92597C26.9024 7.85172 26.1126 9.12231 25.4278 10.4757C24.9421 11.4361 24.4761 12.4075 23.9422 13.3407C22.6172 15.6545 20.547 16.9461 17.9934 17.5109C17.1529 17.6963 16.2915 17.7878 15.4399 17.9225C15.3398 17.9386 15.2384 17.9497 15.1123 17.967C15.1123 18.14 15.1123 18.3057 15.1123 18.4713C15.1123 19.3439 15.1148 20.2177 15.1111 21.0903C15.1086 21.6453 14.7786 21.9988 14.2768 22C13.7738 22.0012 13.4413 21.6453 13.4401 21.094C13.4376 19.4403 13.4388 17.7878 13.4376 16.134C13.4376 16.0327 13.4376 15.9313 13.4376 15.8436C12.6132 15.6211 11.8036 15.4246 11.0076 15.1836C9.66784 14.7782 8.40591 14.2034 7.25645 13.3914C5.46798 12.127 4.40874 10.3509 3.67828 8.33746C3.2222 7.06934 2.78096 5.79876 2.27915 4.55289C1.8342 3.44916 1.16677 2.47891 0.311467 1.64215C0.181689 1.51608 0.102586 1.34057 0 1.18731C0 1.05753 0 0.927754 0 0.797976ZM13.5859 14.1268C14.0803 10.6463 13.1039 7.64902 10.7419 5.12267C8.56906 2.79903 5.86473 1.64462 2.59927 1.68047C3.52255 2.94487 4.03301 4.32547 4.51133 5.72089C4.76594 6.46619 5.02179 7.21148 5.29865 7.94936C6.04148 9.92322 7.23914 11.5251 9.10918 12.5744C10.491 13.3506 11.9841 13.8017 13.5859 14.1268ZM25.8147 6.70473C22.773 6.3463 20.1428 7.2362 17.9588 9.35591C16.0233 11.2358 15.0716 13.5471 15.1074 16.317C15.8935 16.1909 16.6314 16.1031 17.3556 15.9486C19.0452 15.5877 20.5544 14.882 21.7211 13.557C22.3836 12.8055 22.8706 11.9416 23.3143 11.0504C24.0596 9.55985 24.7023 8.00993 25.8147 6.70473Z" fill="#FFFFFF"/>
</svg>
