<svg width="19" height="23" viewBox="0 0 19 23" fill="none" xmlns="http://www.w3.org/2000/svg">
<path d="M8.89975 22.9992C8.63107 22.9654 8.35989 22.9436 8.09372 22.8969C4.82692 22.3201 2.42892 20.6076 0.960821 17.7431C-0.21851 15.4417 -0.314765 13.0703 0.686285 10.6795C0.997649 9.93596 1.41782 9.24562 2.13429 8.79453C2.40464 8.62456 2.73777 8.51501 3.0575 8.45862C3.56807 8.36921 3.92798 8.7325 3.88027 9.23193C3.80159 10.0552 3.78736 10.8808 3.95979 11.6928C4.04097 12.0762 4.17992 12.4556 4.35066 12.8117C4.51472 13.1532 4.83696 13.2918 5.24039 13.2563C5.42202 13.2402 5.5007 13.1613 5.48982 13.0034C5.4622 12.6159 5.45634 12.2229 5.38101 11.8434C5.06797 10.263 4.92568 8.67048 4.98176 7.06345C5.02528 5.80763 5.20189 4.57356 5.75347 3.41602C6.61223 1.61406 8.08786 0.562843 10.0858 0.183439C10.6625 0.0738878 11.2567 0.0344169 11.8443 0.00219584C12.5591 -0.037275 12.8822 0.460541 12.5742 1.07919C12.1356 1.95963 11.9598 2.88115 12.1414 3.8502C12.3482 4.95538 12.9642 5.82696 13.8539 6.52294C14.275 6.8524 14.7412 7.12789 15.1814 7.43641C16.8789 8.62617 18.1017 10.1543 18.7278 12.0964C19.0718 13.1629 19.0576 14.252 18.8634 15.3419C18.4022 17.9357 17.0094 19.9648 14.773 21.4478C13.3961 22.3604 11.8527 22.8623 10.177 22.9654C10.1084 22.9694 10.0406 22.9879 9.97278 23C9.61538 22.9992 9.25715 22.9992 8.89975 22.9992ZM10.9094 1.41912C10.8315 1.42476 10.7771 1.42395 10.7252 1.43281C10.5495 1.46262 10.372 1.4892 10.1988 1.52867C8.85037 1.83396 7.80161 2.52752 7.14875 3.72776C6.7043 4.54376 6.50008 5.42581 6.42977 6.33364C6.30506 7.95195 6.3829 9.56219 6.68003 11.1644C6.79721 11.7943 6.86501 12.4395 6.87924 13.0791C6.89514 13.7888 6.42809 14.3414 5.77105 14.5186C4.68128 14.8126 3.64256 14.3865 3.09851 13.4319C2.67332 12.686 2.52015 11.8757 2.45988 11.0403C2.44649 10.8518 2.43729 10.6642 2.42389 10.441C2.37116 10.4886 2.35191 10.5006 2.34019 10.5184C2.29834 10.5812 2.25566 10.644 2.2205 10.7109C1.26716 12.4919 1.18597 14.3414 1.81874 16.2199C2.36447 17.8398 3.37891 19.1568 4.81855 20.1509C6.81311 21.5283 9.03116 22.0116 11.4074 21.4099C14.7294 20.5689 16.75 18.4665 17.4614 15.2307C17.7083 14.1054 17.6539 12.9849 17.1793 11.9039C16.503 10.3669 15.4016 9.18601 13.9728 8.25805C13.4338 7.90845 12.9023 7.52985 12.4386 7.09406C11.0952 5.83099 10.5009 4.28599 10.7202 2.47516C10.7612 2.1304 10.8424 1.78805 10.9094 1.41912Z" fill="#FFFFFF"/>
</svg>
