<svg width="24" height="18" viewBox="0 0 24 18" fill="none" xmlns="http://www.w3.org/2000/svg">
<path fill-rule="evenodd" clip-rule="evenodd" d="M21.4614 3.04123C20.6866 3.03568 20.1045 2.77043 19.6034 2.30409C19.5578 2.26169 19.5124 2.21909 19.4669 2.17647L19.4668 2.17638L19.4667 2.17636C19.233 1.95739 18.9987 1.73795 18.7458 1.54228C18.393 1.26963 18.0977 1.26963 17.7356 1.53364C17.5291 1.68457 17.3378 1.85678 17.1468 2.02876L17.1467 2.02886C17.0879 2.08177 17.0292 2.13465 16.97 2.18689C16.4936 2.60697 15.9783 2.945 15.3252 3.01656C14.5992 3.09613 13.9665 2.87653 13.4135 2.41759C13.2967 2.32078 13.1866 2.21631 13.0765 2.11187L13.0765 2.11185C12.9769 2.01734 12.8772 1.92284 12.7727 1.83405C12.6133 1.69834 12.4447 1.5688 12.2655 1.46147C12.0177 1.31343 11.7532 1.31651 11.5117 1.47936C11.3291 1.60219 11.1582 1.74316 10.9879 1.88359L10.9879 1.88359L10.9574 1.90869C10.8617 1.9878 10.7687 2.07061 10.6758 2.15338L10.6758 2.15339L10.6758 2.1534C10.5116 2.29973 10.3475 2.4459 10.1684 2.57119C9.21251 3.24048 8.04904 3.18558 7.15434 2.43672C6.9725 2.28449 6.79815 2.12377 6.62375 1.96301L6.62375 1.963C6.49356 1.84299 6.36336 1.72297 6.22999 1.60643C5.81972 1.24804 5.50954 1.22398 5.07332 1.5503C4.86082 1.7091 4.66106 1.88537 4.46134 2.06159L4.46134 2.0616C4.35617 2.1544 4.25101 2.24719 4.14402 2.3374C3.06149 3.25158 1.89184 3.27811 0.775325 2.40526C0.573278 2.24734 0.384824 2.06722 0.209963 1.87908C-0.0489297 1.60088 -0.0452224 1.21905 0.197605 0.969838C0.449083 0.711376 0.808691 0.689169 1.10775 0.929742C1.2218 1.02163 1.32781 1.12309 1.43385 1.22457L1.43385 1.22457C1.49154 1.27978 1.54923 1.335 1.60823 1.38868C2.0667 1.80568 2.66172 1.83282 3.1449 1.44358C3.32255 1.30063 3.49148 1.14708 3.66056 0.993396L3.66056 0.993393L3.66058 0.993377C3.74613 0.915613 3.83172 0.837816 3.91849 0.761341C5.04119 -0.226859 6.17809 -0.217606 7.28781 0.7891C7.35634 0.851303 7.42434 0.914267 7.49235 0.97725L7.49238 0.977276L7.49239 0.977281C7.65369 1.12664 7.8151 1.27612 7.98416 1.41582C8.47908 1.8248 9.05124 1.81246 9.53875 1.39053C9.65734 1.28802 9.77333 1.18246 9.88931 1.07691L9.88933 1.0769C10.0392 0.940475 10.1891 0.804086 10.3445 0.674365C11.4758 -0.267571 12.6381 -0.207737 13.6866 0.836597C13.8911 1.04078 14.1006 1.24125 14.3181 1.43063C14.7549 1.81061 15.2962 1.83405 15.7553 1.48923C15.8747 1.39952 15.9862 1.29965 16.0976 1.1998L16.0976 1.19979C16.1724 1.1328 16.2472 1.06581 16.3243 1.00191C16.3862 0.950575 16.4476 0.898381 16.509 0.846172C16.6976 0.685722 16.8865 0.525127 17.0911 0.388761C17.8419 -0.111507 18.6229 -0.140499 19.373 0.369022C19.7709 0.639204 20.1286 0.972922 20.4802 1.30417C21.0314 1.82356 21.6091 1.85996 22.1942 1.37018C22.307 1.27575 22.414 1.1745 22.521 1.07326C22.607 0.99195 22.6929 0.910649 22.7818 0.832896C22.9808 0.658327 23.2088 0.570116 23.4739 0.666963C23.7309 0.760724 23.8996 0.948865 23.9187 1.21781C23.9292 1.36771 23.8983 1.57312 23.8013 1.66812C23.4423 2.02342 23.0636 2.36331 22.6632 2.6705C22.2925 2.95611 21.8352 3.02149 21.4614 3.04123ZM19.9479 12.1818C20.3514 12.5013 20.8179 12.6672 21.4302 12.6308C22.0895 12.5994 22.5807 12.4242 23.1319 11.9289C23.2507 11.8221 23.3462 11.69 23.442 11.5575C23.5205 11.4489 23.5992 11.3401 23.6911 11.2448C23.9438 10.982 23.9394 10.5434 23.6793 10.2942C23.4266 10.0518 23.0509 10.0703 22.7278 10.346C22.6427 10.4188 22.5592 10.4933 22.4758 10.5677L22.4758 10.5678L22.4757 10.5678C22.3434 10.6859 22.2111 10.8039 22.0728 10.9148C21.5575 11.3287 20.9878 11.2978 20.5083 10.85C20.4612 10.8059 20.4142 10.7616 20.3672 10.7173C20.1182 10.4827 19.8687 10.2477 19.6001 10.0376C18.7264 9.35411 17.7952 9.33376 16.9005 9.98947C16.6461 10.1759 16.4106 10.3879 16.1751 10.5998C16.0733 10.6915 15.9714 10.7832 15.868 10.8728C15.3169 11.3509 14.7546 11.3577 14.2041 10.8784C14.0765 10.7675 13.9541 10.6506 13.8317 10.5337L13.8317 10.5337L13.8316 10.5337C13.711 10.4185 13.5902 10.3033 13.4645 10.1937C12.9733 9.76494 12.4252 9.46145 11.7443 9.5293C11.1789 9.58543 10.7124 9.87289 10.283 10.222C10.1267 10.3495 9.97545 10.4833 9.82422 10.6172L9.82415 10.6172C9.71778 10.7114 9.61141 10.8055 9.50324 10.8975C8.99966 11.3262 8.43307 11.3243 7.93258 10.8925C7.88293 10.8496 7.83637 10.803 7.78984 10.7565L7.78982 10.7564L7.7898 10.7564L7.78979 10.7564C7.73674 10.7033 7.6837 10.6503 7.62611 10.6026C7.54873 10.5389 7.47198 10.4742 7.3952 10.4094L7.39515 10.4093L7.3951 10.4093C7.16722 10.2171 6.93911 10.0246 6.69373 9.85808C6.06411 9.4306 5.38134 9.39976 4.71465 9.74643C4.43305 9.89237 4.17775 10.0912 3.92396 10.2889C3.857 10.341 3.79015 10.3931 3.72295 10.4441C3.61942 10.5226 3.52195 10.6095 3.42455 10.6963C3.29989 10.8074 3.17534 10.9185 3.03834 11.0116C2.57183 11.3287 2.11893 11.2984 1.67714 10.9437C1.57975 10.8657 1.48715 10.7815 1.39458 10.6973L1.39455 10.6972C1.29037 10.6025 1.18623 10.5078 1.07532 10.4219C0.794804 10.2048 0.43705 10.2381 0.203491 10.4823C-0.0479876 10.7451 -0.0788817 11.1035 0.181247 11.3651C0.488334 11.6735 0.817666 11.9665 1.17048 12.22C1.51834 12.4705 1.93542 12.5655 2.36793 12.5722C3.16624 12.5846 3.78536 12.2034 4.3501 11.6901C4.59787 11.4644 4.84935 11.238 5.12307 11.0461C5.48021 10.7963 5.77555 10.8124 6.11045 11.0881C6.2947 11.2398 6.47028 11.4022 6.64586 11.5647C6.76291 11.6729 6.87996 11.7812 6.99958 11.8863C7.56371 12.3822 8.20692 12.6555 8.97495 12.5741C9.61075 12.5069 10.123 12.1978 10.5852 11.7796L10.6988 11.6763C10.9269 11.4686 11.1555 11.2605 11.4014 11.0764C11.777 10.7951 12.0607 10.8043 12.424 11.0949C12.6239 11.2548 12.8122 11.4303 13.0003 11.6055L13.0003 11.6055C13.0582 11.6594 13.116 11.7133 13.1741 11.7666C14.1534 12.6672 15.265 12.8548 16.3086 12.2373C16.5957 12.0677 16.8476 11.8377 17.0985 11.6086C17.178 11.5359 17.2575 11.4634 17.338 11.3928C18.0825 10.7396 18.3958 10.7451 19.1138 11.4292L19.1984 11.5098C19.4415 11.7414 19.6855 11.974 19.9479 12.1818ZM0.266811 16.4004C0.761735 16.9525 1.3444 17.364 2.07659 17.5398C2.29594 17.5398 2.51467 17.5398 2.73463 17.5404C3.51873 17.4065 4.11313 16.9519 4.66181 16.4134C4.82802 16.2505 5.01586 16.1056 5.20802 15.9736C5.51325 15.7638 5.83393 15.7719 6.12063 16.0032C6.32633 16.1691 6.52543 16.3427 6.72455 16.5163C6.89626 16.666 7.06798 16.8157 7.24394 16.9605C8.10341 17.6681 9.32929 17.6964 10.2197 17.0284C10.358 16.9243 10.4879 16.8093 10.6179 16.6943L10.6179 16.6942L10.6181 16.6941C10.6929 16.6278 10.7678 16.5615 10.8443 16.4973C10.902 16.4489 10.9592 16.3997 11.0163 16.3505L11.0165 16.3504L11.0167 16.3503L11.0167 16.3503C11.1787 16.2109 11.3408 16.0715 11.5147 15.9489C11.833 15.7244 12.1357 15.7305 12.4434 15.9742C12.6833 16.1642 12.9076 16.3743 13.1313 16.5838L13.1313 16.5838L13.2294 16.6755C13.867 17.2708 14.5893 17.6101 15.4865 17.4466C16.0772 17.3393 16.556 17.0333 16.9892 16.6336C17.253 16.3906 17.5218 16.1525 17.8023 15.9292C18.1113 15.683 18.4381 15.6985 18.7514 15.9304C18.9071 16.0459 19.0542 16.1736 19.2006 16.3008L19.2024 16.3024C19.2964 16.3844 19.3853 16.4726 19.4706 16.5639C20.2312 17.3831 21.1586 17.6206 22.2245 17.3331C22.4537 17.2714 22.6996 17.1882 22.8776 17.042C23.156 16.8124 23.4152 16.5598 23.6746 16.3071L23.6746 16.3071C23.7825 16.2019 23.8904 16.0968 23.9997 15.9933V15.6651C23.7049 15.0538 23.2421 14.9755 22.7386 15.4492C22.5798 15.5991 22.4185 15.7478 22.2511 15.8884C21.732 16.3233 21.2322 16.3431 20.6996 15.9236C20.5312 15.7909 20.3719 15.6468 20.2126 15.5027L20.2125 15.5026L20.2125 15.5026C20.0474 15.3533 19.8824 15.204 19.7072 15.0674C18.828 14.3827 18.0031 14.358 17.0701 14.9687C16.933 15.0582 16.8013 15.1569 16.6753 15.2617C16.5677 15.3511 16.4628 15.444 16.3579 15.5368C16.176 15.6979 15.9941 15.8589 15.7985 16.0013C15.332 16.3412 14.8692 16.3202 14.4182 15.9656C14.2983 15.8717 14.1864 15.7677 14.0745 15.6639C14.0202 15.6135 13.966 15.5632 13.9109 15.514C13.8541 15.4633 13.7982 15.4113 13.7424 15.3593L13.7424 15.3593C13.6148 15.2407 13.4874 15.1221 13.3486 15.0187C12.5386 14.4148 11.6433 14.3734 10.7931 14.9212C10.5862 15.0547 10.3977 15.2168 10.2092 15.3789C10.1128 15.4618 10.0164 15.5447 9.91752 15.6238C9.8637 15.6668 9.81065 15.7112 9.75756 15.7557C9.61254 15.8772 9.46729 15.9988 9.30581 16.0914C8.8906 16.3289 8.47847 16.2777 8.10403 15.9822C8.03531 15.9278 7.97244 15.866 7.9095 15.8041L7.9095 15.8041L7.90949 15.8041L7.90948 15.8041C7.84962 15.7452 7.78971 15.6863 7.72465 15.6337C7.63059 15.5577 7.53746 15.4801 7.44429 15.4025C7.17147 15.1754 6.89842 14.948 6.60134 14.759C6.13731 14.4641 5.60099 14.4098 5.09247 14.6245C4.69579 14.7923 4.32259 15.0285 3.96607 15.2734C3.81534 15.377 3.68042 15.503 3.5453 15.6292C3.42841 15.7384 3.31137 15.8477 3.18383 15.9427C2.65925 16.3332 2.19337 16.3141 1.68794 15.9039C1.56533 15.8043 1.45057 15.6951 1.33585 15.586L1.33583 15.5859L1.3358 15.5859C1.28635 15.5389 1.2369 15.4918 1.18684 15.4455C1.02866 15.3 0.84762 15.2198 0.630744 15.2667C0.36629 15.3234 0.181543 15.4776 0.092568 15.7361C0.00297508 15.9958 0.0944217 16.208 0.266811 16.4004ZM19.7382 7.21239C20.2072 7.63062 20.7552 7.8422 21.3892 7.86564C21.4597 7.85331 21.5305 7.8421 21.6014 7.83089C21.7539 7.80675 21.9065 7.78258 22.0571 7.7472C22.7341 7.58902 23.2045 7.12304 23.672 6.65999C23.6931 6.63911 23.7142 6.61823 23.7353 6.59739C24.0232 6.31302 24.0195 5.95031 23.7575 5.67828C23.4924 5.40254 23.1433 5.38404 22.8338 5.64188C22.7171 5.73945 22.6051 5.84283 22.4932 5.94617C22.4155 6.01792 22.3378 6.08965 22.2585 6.15942C21.6648 6.68251 21.0636 6.66956 20.4827 6.13043C20.4246 6.07639 20.3667 6.02194 20.3088 5.96748C20.082 5.754 19.8548 5.54031 19.6097 5.35011C18.7323 4.6691 17.8277 4.64998 16.9349 5.30446C16.6336 5.52549 16.3531 5.77534 16.0729 6.02484C15.9911 6.09773 15.9093 6.17059 15.827 6.2427C15.5502 6.48574 15.227 6.60973 14.8755 6.51658C14.6444 6.4549 14.4201 6.31795 14.2298 6.16806C14.0575 6.03214 13.8943 5.88428 13.7312 5.73651C13.5234 5.5483 13.3158 5.36023 13.0898 5.19713C12.4515 4.73696 11.7471 4.70118 11.0539 5.06944C10.7741 5.21811 10.5191 5.41558 10.2659 5.61162C10.2165 5.64985 10.1672 5.68803 10.1178 5.72577C10.0137 5.80522 9.91646 5.89379 9.81926 5.98235C9.70815 6.08358 9.59707 6.18479 9.47579 6.27231C8.96603 6.64057 8.50757 6.62823 8.01882 6.22974C7.85764 6.09825 7.70429 5.95704 7.55101 5.8159C7.37641 5.65513 7.2019 5.49443 7.016 5.34826C6.09906 4.62716 5.17224 4.61975 4.24356 5.31988C4.01229 5.49393 3.79364 5.68528 3.57498 5.87663C3.48752 5.95317 3.40006 6.02971 3.31179 6.10514C2.6797 6.64427 2.1409 6.63933 1.51932 6.08293C1.46335 6.033 1.40964 5.98035 1.35589 5.92768C1.2868 5.85996 1.21767 5.7922 1.14364 5.73009C0.853238 5.48705 0.477566 5.51049 0.21373 5.77882C-0.0272443 6.02371 -0.0309516 6.38581 0.218673 6.66586C0.355917 6.81978 0.508064 6.96103 0.659464 7.10158C0.668244 7.10974 0.677021 7.11788 0.685792 7.12603C1.26475 7.66393 1.95245 7.87983 2.73469 7.79038C3.29017 7.72685 3.75481 7.46962 4.17188 7.10691C4.21471 7.06971 4.25747 7.03236 4.30026 6.995C4.581 6.74987 4.86267 6.50393 5.16668 6.29143C5.50775 6.05332 5.76973 6.08046 6.08856 6.34448C6.29483 6.51538 6.49316 6.69589 6.69151 6.87641C6.81103 6.98519 6.93056 7.09398 7.05183 7.20067C7.8971 7.94336 9.05315 8.04885 10.0084 7.45235C10.2011 7.33183 10.3782 7.1861 10.5554 7.04027C10.6321 6.97711 10.7089 6.91392 10.7869 6.85277C10.8595 6.7959 10.9308 6.7373 11.0021 6.67872C11.1481 6.55875 11.294 6.43885 11.4505 6.33399C11.8342 6.07676 12.0758 6.08478 12.4305 6.3747C12.5976 6.5112 12.7559 6.65846 12.9142 6.80572C13.042 6.92466 13.1698 7.0436 13.3023 7.15687C13.9035 7.67071 14.5844 7.96125 15.3939 7.83665C16.0099 7.74227 16.5178 7.43323 16.9726 7.01993C17.2092 6.80465 17.4477 6.58814 17.7029 6.39629C18.1243 6.07923 18.4122 6.07553 18.8281 6.40246C19.0409 6.57037 19.2404 6.75511 19.44 6.93988C19.5389 7.03139 19.6377 7.12291 19.7382 7.21239Z" fill="#FFFFFF"/>
</svg>
