<svg width="21" height="21" viewBox="0 0 21 21" fill="none" xmlns="http://www.w3.org/2000/svg">
<path fill-rule="evenodd" clip-rule="evenodd" d="M0.0565189 2.49406L0.0565174 2.49406C0.0381812 2.56728 0.0198515 2.64047 0 2.71308C0 7.90477 0 13.097 0.000577253 18.2881C0.018349 18.3553 0.0342803 18.4231 0.050199 18.4909L0.0502021 18.4909C0.0839192 18.6344 0.11758 18.7776 0.168554 18.9145C0.593402 20.0603 1.40904 20.7437 2.61547 20.9567C2.63708 20.9607 2.65736 20.9705 2.67775 20.9803L2.67778 20.9804C2.68734 20.985 2.69692 20.9896 2.70668 20.9937H4.01874C4.30852 20.8551 4.40376 20.7039 4.35239 20.4626C4.30332 20.2323 4.13765 20.1249 3.8219 20.1226C3.72053 20.1219 3.61926 20.1223 3.51805 20.1227H3.51798H3.51792C3.38 20.1232 3.2422 20.1238 3.10439 20.1215C2.11674 20.1041 1.28609 19.5223 0.992275 18.6287C0.847976 18.1896 0.859086 17.7416 0.870387 17.2859C0.875858 17.0653 0.881373 16.8428 0.869323 16.6188H1.1412C3.32028 16.6188 5.49936 16.6188 7.67844 16.6182L7.69809 16.6182C7.78008 16.6183 7.86326 16.6184 7.94397 16.6061C8.14312 16.5761 8.28396 16.4167 8.3007 16.2153C8.31629 16.0196 8.19738 15.8343 8.00285 15.78C7.90645 15.7529 7.80139 15.7483 7.6998 15.7483C5.94488 15.7469 4.19034 15.747 2.43558 15.7471L1.12158 15.7471H0.888949V4.39631H11.367V4.63009L11.3669 5.52481C11.3667 6.12129 11.3666 6.71777 11.367 7.31425C11.367 7.48858 11.3849 7.65771 11.5373 7.77489C11.6799 7.88456 11.8369 7.9065 11.9985 7.82568C12.204 7.72294 12.2473 7.53418 12.2473 7.32579C12.2471 6.87593 12.248 6.42601 12.2489 5.97606V5.97601V5.97596V5.97574C12.2508 5.02574 12.2526 4.07564 12.2444 3.1258C12.23 1.39351 10.937 0.0335304 9.2543 0.0150588C7.1647 -0.00745358 5.07394 -0.00225844 2.98375 0.0144815C1.72306 0.0248718 0.615915 0.841088 0.189335 2.02905C0.135042 2.18051 0.0957658 2.33735 0.0565195 2.49406L0.0565189 2.49406ZM11.3666 3.35938L11.3664 3.49177H0.88664C0.814485 2.7125 0.989388 2.02674 1.5724 1.47778C2.01226 1.0639 2.53985 0.879763 3.13845 0.879763C3.80106 0.879956 4.4636 0.879571 5.12611 0.879186H5.12623H5.12635H5.12638C6.45148 0.878416 7.77641 0.877647 9.10133 0.881495C10.4255 0.884959 11.356 1.82009 11.3664 3.13966C11.3668 3.2107 11.3667 3.28149 11.3666 3.35938ZM5.42174 20.3206C5.61857 20.6993 5.96376 20.8799 6.35455 20.9937C9.31983 20.9937 12.2851 20.9937 15.2492 20.9919C15.2677 20.9874 15.286 20.9824 15.3043 20.9774L15.3044 20.9773L15.3045 20.9773C15.3446 20.9663 15.3845 20.9553 15.4253 20.9498C16.4216 20.8141 17.3025 20.4216 18.0356 19.733C18.5782 19.2233 19.111 18.7014 19.6201 18.1588C21.3818 16.2828 21.4725 13.6321 19.8002 11.6695C18.7288 10.4117 17.6009 9.20066 16.4689 7.99654C15.6262 7.10009 14.164 7.41353 13.7063 8.55531C13.6954 8.5828 13.6815 8.60899 13.6672 8.6358C13.6602 8.64896 13.6531 8.66227 13.6462 8.67595C12.8006 8.08313 11.4943 8.3019 11.0163 9.55451C10.5488 9.23645 10.0431 9.13717 9.50109 9.31726C8.96425 9.49621 8.61214 9.87142 8.39221 10.4683C8.36267 10.4286 8.33802 10.3932 8.31578 10.3611L8.31574 10.3611L8.31574 10.3611L8.31573 10.3611L8.31571 10.361C8.27454 10.3018 8.24161 10.2544 8.20114 10.2143C8.05957 10.0742 7.91977 9.93202 7.77995 9.78982L7.77987 9.78975L7.77985 9.78973C7.42599 9.42986 7.07205 9.06992 6.68935 8.74349C5.84658 8.02483 4.44043 8.4618 4.10678 9.51757C3.88455 10.2218 4.07215 10.8187 4.58532 11.3313C5.17577 11.9213 5.76611 12.5116 6.35646 13.1019L6.35647 13.1019L6.35648 13.1019C7.6551 14.4003 8.95377 15.6988 10.2538 16.9957C10.2924 17.0343 10.3441 17.0594 10.3957 17.0845C10.4191 17.0959 10.4424 17.1072 10.4645 17.1198L10.4347 17.1571L10.405 17.1943C10.3977 17.1968 10.3904 17.1996 10.3831 17.2024L10.383 17.2025C10.3667 17.2088 10.3502 17.2152 10.3335 17.2179C10.0507 17.2621 9.76791 17.3066 9.48511 17.3511L9.48488 17.3511L9.48465 17.3511C8.69559 17.4753 7.90636 17.5994 7.11651 17.7167C6.47982 17.8113 5.93144 18.0544 5.57874 18.6154C5.24221 19.1511 5.11003 19.7209 5.42174 20.3206ZM12.1732 20.1222L10.909 20.122C10.4997 20.1222 10.0905 20.1215 9.68118 20.1207H9.68111H9.68104H9.68066C8.70291 20.119 7.72499 20.1172 6.7465 20.1278C6.17676 20.1336 6.02091 19.7919 6.18889 19.3278C6.33666 18.9196 6.63913 18.6847 7.06456 18.6172C8.08405 18.4548 9.10385 18.2948 10.1237 18.1349L11.2513 17.958C11.3188 17.9476 11.3864 17.9366 11.4527 17.9204C11.7962 17.8356 11.9134 17.4725 11.6848 17.2006C11.6477 17.1559 11.6061 17.115 11.5645 17.0742L11.5284 17.0384L8.37014 13.8805L5.20931 10.72C4.86989 10.3805 4.79543 10.0377 4.98246 9.68901C5.21912 9.248 5.78193 9.12908 6.17446 9.43906C6.24372 9.49389 6.30663 9.55681 6.36954 9.61972L6.36955 9.61973L6.36956 9.61974L8.01621 11.2654C8.83977 12.0885 9.66329 12.9116 10.487 13.7343C10.5545 13.8013 10.6244 13.8688 10.7029 13.9213C10.8691 14.0327 11.0896 14.0079 11.2311 13.8728C11.3783 13.7331 11.4071 13.504 11.2917 13.3302C11.2432 13.2575 11.1809 13.1917 11.1185 13.1294C10.9188 12.929 10.7186 12.7295 10.5183 12.5299L10.518 12.5296L10.5179 12.5295C10.1764 12.1892 9.83481 11.8488 9.49647 11.505C9.0976 11.0992 9.14493 10.522 9.59056 10.2333C9.92247 10.018 10.3173 10.0706 10.6331 10.3828C10.9965 10.7423 11.3575 11.1039 11.7184 11.4655L11.7186 11.4657C11.8885 11.6359 12.0584 11.8061 12.2285 11.976L12.2615 12.0094C12.2889 12.0372 12.3163 12.0651 12.3451 12.0915C12.5558 12.2825 12.8127 12.2935 12.9865 12.1198C13.166 11.9402 13.1642 11.6874 12.9634 11.4784C12.8351 11.3448 12.7031 11.2147 12.5711 11.0846L12.571 11.0845C12.406 10.9219 12.2411 10.7594 12.0837 10.5901C11.6415 10.1144 11.873 9.37903 12.4998 9.24973C12.7919 9.1897 13.0378 9.29014 13.2445 9.49563C13.3444 9.59512 13.444 9.69505 13.5436 9.79499L13.544 9.79541L13.5444 9.79582C13.7243 9.97628 13.9043 10.1568 14.0861 10.3349C14.2264 10.4723 14.3909 10.5439 14.5889 10.4631C14.7569 10.395 14.874 10.2599 14.8532 10.0885C14.8365 9.9453 14.7557 9.79522 14.6645 9.67804C14.3026 9.21221 14.4775 8.56974 15.0299 8.39772C15.3352 8.30248 15.6192 8.35789 15.838 8.59745C16.1451 8.93433 16.4538 9.26978 16.7625 9.60524L16.7627 9.60539L16.7628 9.60553C17.6014 10.5167 18.4401 11.428 19.2455 12.368C20.4663 13.7926 20.3953 16.0202 19.1277 17.4055C18.6163 17.9643 18.0714 18.4936 17.5264 19.0207C16.7414 19.7797 15.7855 20.1215 14.7009 20.122C13.8585 20.1224 13.016 20.1223 12.1733 20.1222H12.1732H12.1732ZM6.1324 1.76352C6.25709 1.76352 6.38177 1.76334 6.50646 1.76315C6.81817 1.76268 7.12987 1.7622 7.44158 1.76468C7.62168 1.76641 7.75271 1.85877 7.82718 2.02155C7.89933 2.17856 7.88606 2.3448 7.76368 2.45794C7.67132 2.54337 7.53048 2.6213 7.40983 2.62303C6.5509 2.63689 5.69139 2.63458 4.83246 2.62823C4.56116 2.62592 4.38221 2.4412 4.3799 2.19876C4.3776 1.94478 4.55596 1.76756 4.84343 1.76295C5.14275 1.75772 5.44208 1.75894 5.7414 1.76015L5.74149 1.76015C5.8716 1.76068 6.00171 1.76121 6.13183 1.76121C6.1324 1.76179 6.1324 1.76237 6.1324 1.76352ZM9.20232 1.7641C8.96104 1.76122 8.77228 1.94362 8.76766 2.18376C8.76304 2.41754 8.94949 2.61669 9.18443 2.62765C9.41937 2.63862 9.6341 2.43081 9.63352 2.19299C9.63294 1.96036 9.43784 1.76641 9.20232 1.7641Z" fill="#FFFFFF"/>
</svg>
