<svg width="21" height="23" viewBox="0 0 21 23" fill="none" xmlns="http://www.w3.org/2000/svg">
<path fill-rule="evenodd" clip-rule="evenodd" d="M20.7395 7.05243C20.7373 6.08118 20.3083 5.33274 19.4631 4.82846C19.4053 4.79398 19.3469 4.75968 19.2883 4.72556L19.1814 4.66321C19.0293 4.57505 18.877 4.48828 18.7273 4.4032L18.4321 4.23529L16.4695 3.11151L16.4167 3.0813L15.9072 2.78965L15.5864 2.60602L13.6633 1.50452C13.0244 1.13834 12.3848 0.771335 11.7498 0.406284C10.8428 -0.114987 9.95264 -0.134762 9.10498 0.347568C7.02368 1.53174 4.91187 2.74259 2.86768 3.91477L2.7854 3.96201L1.2583 4.83777C0.793945 5.10392 0.450439 5.48035 0.23877 5.95664C0.211914 6.01648 0.187988 6.07688 0.165771 6.13727C0.152588 6.17313 0.140137 6.20899 0.128174 6.24472L0.0900879 6.35926L0.0812988 6.38633L0.0761719 6.4011C0.0559082 6.46366 0.0356445 6.52677 0.0136719 6.58878C0.00439453 6.61512 0 6.64255 0 6.66999V16.3374C0 16.3488 0.000732422 16.3602 0.00244141 16.3715C0.00561523 16.3942 0.0119629 16.4165 0.0214844 16.4378L0.0422363 16.4806L0.0488281 16.4938C0.205322 17.2351 0.61084 17.7981 1.25439 18.1679C4.33667 19.9387 6.83984 21.3698 9.13135 22.6708C9.31909 22.7772 9.51978 22.8414 9.71362 22.9029L9.73218 22.9088L9.73438 22.9096L9.85791 22.9497L9.93115 22.9747L9.95874 22.9846C9.98633 22.9945 10.0146 23 10.0439 23H10.7034C10.7332 23 10.7627 22.9945 10.7908 22.9841C10.874 22.9528 10.9592 22.9243 11.0491 22.8947L11.0527 22.8936C11.1086 22.8749 11.1653 22.8561 11.2219 22.8363C11.2615 22.8225 11.301 22.8082 11.3406 22.7932C11.4473 22.7523 11.5532 22.7057 11.6555 22.6477C14.0337 21.2957 16.5879 19.8333 19.4644 18.1778C20.2974 17.6982 20.738 16.9284 20.7402 15.9511C20.7432 14.2676 20.7446 12.5957 20.7441 10.9498L20.7432 9.42987C20.7427 8.80024 20.7417 8.17514 20.7402 7.55539L20.7395 7.05243ZM10.9883 11.9514C10.9883 11.8708 10.9932 11.8565 11.075 11.8093C13.3301 10.5056 15.6211 9.1771 17.8369 7.89252L19.4895 6.9339C19.4934 6.97013 19.4956 7.00525 19.4961 7.03928C19.5005 10.3217 19.5017 13.2382 19.499 15.9566C19.4983 16.4757 19.2844 16.8505 18.8447 17.1023C15.9849 18.7425 13.1606 20.3568 11.0195 21.5799L10.9932 21.5942V19.9848C10.9932 17.3525 10.9932 14.6298 10.9883 11.9514ZM9.74976 18.7204V18.7525V19.745V21.5958L9.7373 21.5891L9.71851 21.5788C8.49097 20.8775 7.30713 20.2005 6.1543 19.5407C4.69312 18.7045 3.28174 17.8958 1.89478 17.1001C1.46631 16.8543 1.2478 16.4828 1.24731 15.9966C1.24121 13.0851 1.24341 10.1961 1.24658 6.99207C1.24658 6.97232 1.2478 6.95203 1.24951 6.93061L3.58472 8.28595L5.72949 9.53052C7.05493 10.2994 8.38037 11.0681 9.7063 11.8362C9.73438 11.8521 9.74634 11.862 9.75146 11.8664C9.75244 11.8702 9.75366 11.8779 9.75366 11.8911C9.75073 14.1525 9.75024 16.4468 9.74976 18.6888V18.7204ZM1.93262 5.88748L1.95898 5.87213C4.4585 4.43888 7.05762 2.94962 9.68555 1.44611C10.1443 1.18384 10.5833 1.17945 11.0276 1.43296C11.741 1.84009 12.4575 2.24964 13.1743 2.6597C14.896 3.64463 16.6191 4.63254 18.3022 5.59723L18.8103 5.88858L18.6582 5.97803L16.887 7.0058L16.2214 7.39197C14.312 8.49991 12.3542 9.63599 10.4263 10.758C10.4089 10.768 10.3972 10.7748 10.3875 10.7785C10.3669 10.7862 10.356 10.7798 10.3215 10.7596L8.87256 9.91663L6.45166 8.50986L3.44043 6.7616L1.93262 5.88748ZM10.8149 7.31913C11.3516 7.15012 11.7583 6.83625 11.8459 6.24472C11.9277 5.69327 11.688 5.27622 11.2244 4.98868C10.5806 4.58979 9.70215 4.70774 9.19238 5.25812C8.93994 5.53028 8.8252 5.85514 8.88623 6.22608C8.99805 6.9076 9.60107 7.37455 10.3628 7.39209C10.385 7.38861 10.4072 7.38556 10.4297 7.38275L10.5095 7.37339C10.585 7.3649 10.6604 7.35642 10.7334 7.34055C10.761 7.3346 10.7881 7.32758 10.8149 7.31913ZM16.7227 14.1765C16.625 14.8964 15.9885 15.5286 15.2668 15.6224C14.6484 15.7031 14.1255 15.2553 14.1211 14.6429C14.1162 13.8511 14.853 13.0571 15.6438 13.0033C16.3254 12.9567 16.8159 13.4901 16.7227 14.1765ZM12.8918 19.756C13.7124 19.7367 14.4888 18.9405 14.4866 18.1202C14.4849 17.4815 13.9192 17.0227 13.28 17.1418C12.6077 17.2669 12.0442 17.8173 11.8987 18.4895C11.75 19.1765 12.2175 19.7719 12.8918 19.756ZM18.9702 10.0534C18.8423 10.8573 18.1184 11.5092 17.3601 11.5037C16.7373 11.4993 16.283 10.9594 16.3792 10.3387C16.491 9.61826 17.0706 9.02454 17.7893 8.89395C18.5032 8.76392 19.0842 9.33512 18.9702 10.0534ZM7.64014 17.1276C7.01562 17.1292 6.55078 17.6395 6.625 18.2426C6.70776 18.9164 7.229 19.5227 7.88257 19.7049C8.58838 19.9019 9.22266 19.4783 9.24951 18.7929C9.28076 17.9797 8.45557 17.1254 7.64014 17.1276ZM6.61914 12.8645C6.62402 12.1907 7.25562 11.7375 7.93994 11.9163C8.62964 12.0969 9.14551 12.6785 9.24219 13.3858C9.32446 13.9845 8.85352 14.5036 8.23193 14.4992C7.40381 14.4937 6.61304 13.692 6.61914 12.8645ZM3.02319 14.1557C2.36035 14.002 1.74902 14.4608 1.74414 15.1154C1.73877 15.95 2.5481 16.7588 3.38037 16.7506C3.9895 16.7446 4.44556 16.2304 4.36865 15.635C4.27661 14.9217 3.72827 14.3186 3.02319 14.1557ZM4.36743 10.3821C4.44824 10.9928 3.96924 11.5152 3.33911 11.5031C2.42285 11.4861 1.57007 10.4633 1.77759 9.63034C1.90308 9.12607 2.39551 8.80289 2.91064 8.88575C3.66577 9.00699 4.26709 9.62543 4.36743 10.3821Z" fill="#FFFFFF"/>
</svg>
