<svg width="19" height="19" viewBox="0 0 19 19" fill="none" xmlns="http://www.w3.org/2000/svg">
<path fill-rule="evenodd" clip-rule="evenodd" d="M18.9087 2.92865C18.8459 3.03912 18.7956 3.15866 18.7187 3.25815C18.5469 3.48169 18.3008 3.54693 18.0308 3.54693L17.5481 3.54767C17.1059 3.54867 16.6636 3.54971 16.2217 3.54306C16.0679 3.54046 16.0002 3.58893 15.9446 3.73431C15.5234 4.83648 14.4902 5.53357 13.3293 5.51227C12.2595 5.49289 11.24 4.78802 10.864 3.78534C10.7934 3.59799 10.7075 3.54178 10.5112 3.54178C7.76366 3.54736 5.01635 3.54669 2.26903 3.54599L0.985097 3.54565C0.949208 3.54565 0.913075 3.54526 0.876943 3.54413C0.808583 3.54202 0.73998 3.53729 0.672353 3.52756C0.273671 3.46942 -0.0124617 3.12634 0.000477706 2.72967C0.0139054 2.33429 0.323476 2.00866 0.723378 1.97314C0.764882 1.96942 0.80663 1.96835 0.848622 1.96817L0.963124 1.96863L5.48998 1.96841C7.16869 1.96866 8.8474 1.96972 10.5261 1.97314C10.7095 1.97378 10.7891 1.92145 10.8542 1.75024C11.3704 0.407713 12.8254 -0.305514 14.1943 0.125395C15.0342 0.389646 15.6235 0.947843 15.9419 1.7735C16.0002 1.92532 16.0679 1.97571 16.2307 1.9725C16.4751 1.96771 16.72 1.96933 16.9646 1.97095C17.28 1.97302 17.5954 1.9751 17.9106 1.96344C18.4009 1.94534 18.7434 2.11978 18.9079 2.59595C18.9087 2.70706 18.9087 2.81753 18.9087 2.92865ZM13.3984 3.93265C14.0439 3.92941 14.5679 3.40674 14.5749 2.76004C14.5813 2.11914 14.031 1.56869 13.3887 1.57452C12.7368 1.58032 12.2097 2.1185 12.2175 2.77038C12.2251 3.41836 12.751 3.93521 13.3984 3.93265ZM18.9094 15.5211C18.7451 15.9972 18.4021 16.1716 17.9119 16.1535C17.7546 16.1478 17.5974 16.1454 17.4399 16.1446C17.0312 16.1426 16.6221 16.152 16.2134 16.1445C16.0647 16.1419 16.0034 16.1891 15.949 16.326C15.5608 17.308 14.8403 17.9005 13.801 18.0833C12.5986 18.2946 11.3103 17.5626 10.875 16.4184C10.7942 16.2059 10.6985 16.1419 10.4712 16.1425C7.27684 16.1516 4.08349 16.149 0.889394 16.1484C0.429433 16.1484 0.128407 15.9384 0.0268449 15.5501C-0.0861922 15.1192 0.197499 14.6702 0.635976 14.5939C0.744618 14.5752 0.856435 14.5707 0.966786 14.5707C4.16112 14.5694 7.35448 14.5681 10.5486 14.5746C10.7212 14.5752 10.791 14.5184 10.8503 14.3652C11.5112 12.6584 13.5613 12.0646 15.0337 13.1571C15.4619 13.475 15.7766 13.891 15.9524 14.3995C15.998 14.5313 16.0635 14.5752 16.2043 14.5733C16.4355 14.5698 16.6667 14.5713 16.8979 14.5728C17.2268 14.5749 17.5554 14.577 17.884 14.5649C18.3757 14.5468 18.7329 14.7083 18.9094 15.1877V15.5211ZM12.2173 15.3589C12.2161 16.0101 12.7568 16.5509 13.4009 16.5418C14.0456 16.5334 14.5691 16.0075 14.5754 15.3634C14.5813 14.7193 14.0386 14.1805 13.3874 14.1844C12.74 14.1882 12.2187 14.7115 12.2173 15.3589ZM17.9219 9.84927C18.4133 9.85055 18.7539 9.68905 18.9089 9.20645L18.9087 9.03216L18.9077 8.91247C18.7532 8.42987 18.4128 8.26837 17.9204 8.26965C16.133 8.27548 14.3454 8.27579 12.5579 8.27609C11.1704 8.2763 9.78295 8.27652 8.3955 8.27933C8.20751 8.27933 8.11962 8.22894 8.05004 8.04934C7.73656 7.24563 7.15648 6.70358 6.33983 6.43677C4.97411 5.99035 3.49267 6.70294 2.97899 8.04739C2.9099 8.2283 2.8247 8.28387 2.63524 8.27933C2.2578 8.27075 1.88012 8.272 1.50219 8.27325C1.28319 8.27398 1.0642 8.27472 0.84496 8.27353C0.538808 8.27157 0.290028 8.38012 0.124013 8.6405C-0.1963 9.14377 0.138173 9.81439 0.734609 9.83505C1.04442 9.8457 1.35473 9.84936 1.66527 9.8493C1.99486 9.84921 2.3247 9.84488 2.65404 9.84024C2.82714 9.83764 2.90673 9.88803 2.97118 10.0547C3.28661 10.8642 3.86669 11.4147 4.69115 11.6828C6.05883 12.1273 7.53515 11.4166 8.05126 10.0696C8.0952 9.9552 8.14672 9.89309 8.2268 9.86316C8.27294 9.84591 8.32836 9.83932 8.39696 9.83957C9.78612 9.84241 11.1753 9.84262 12.5647 9.84283C14.3503 9.84314 16.1362 9.84344 17.9219 9.84927ZM5.52587 7.87878C6.17064 7.88589 6.69188 8.41501 6.69115 9.06042C6.68993 9.70584 6.16674 10.2337 5.52318 10.2401C4.87767 10.2453 4.33251 9.70325 4.33446 9.05783C4.33568 8.41049 4.88109 7.87103 5.52587 7.87878Z" fill="#FFFFFF"/>
</svg>
