<svg width="27" height="18" viewBox="0 0 27 18" fill="none" xmlns="http://www.w3.org/2000/svg">
<path d="M14.203 17.18C14.0844 17.18 13.9652 17.18 13.8466 17.18C13.57 17.0602 13.2659 16.9805 13.0237 16.8109C12.7139 16.5942 12.4545 16.3054 12.1727 16.0485C11.9878 15.8796 11.8023 15.712 11.6876 15.6074C11.3274 15.93 10.9832 16.22 10.66 16.5317C9.99647 17.1723 9.04667 17.2125 8.37098 16.5833C8.10517 16.336 7.89672 16.0275 7.65513 15.7387C6.75633 16.2557 5.57961 15.8873 5.00718 14.5327C4.25181 14.7966 3.62265 14.5811 3.07764 14.0176C2.51988 13.4401 2.41278 12.7918 2.74107 12.0607C2.66967 12.0333 2.61294 12.0161 2.56003 11.9912C1.24052 11.3786 0.889929 9.97495 1.9041 9.02707C2.23048 8.72174 2.52497 8.38262 2.84178 8.05115C2.77167 7.98804 2.71621 7.93641 2.65884 7.88796C1.96849 7.2996 1.27495 6.71506 0.589055 6.1216C-0.13062 5.50009 -0.198827 4.5248 0.428419 3.81469C1.22013 2.91908 2.01629 2.02793 2.81692 1.13997C3.44226 0.44643 4.41245 0.233523 5.28065 0.59113C5.67969 0.75559 6.07299 0.934712 6.47331 1.09599C7.14836 1.36817 7.82852 1.3669 8.50293 1.09471C8.87966 0.942999 9.25193 0.778538 9.62356 0.614715C10.0742 0.415832 10.5466 0.347626 11.0355 0.35145C11.6685 0.355913 12.225 0.594954 12.7598 0.897741C12.9204 0.988895 13.0326 0.972322 13.1901 0.87033C14.0054 0.341251 14.8704 0.278782 15.7551 0.677822C16.3569 0.949374 16.944 1.25407 17.5406 1.53646C18.1774 1.83733 18.8047 1.81056 19.4077 1.44212C20.0005 1.08005 20.5876 0.708419 21.1792 0.344438C22.1309 -0.242011 23.0411 -0.0750002 23.7334 0.810411C24.2453 1.46443 24.7527 2.12227 25.2696 2.77183C25.596 3.18234 25.9294 3.58521 26.0607 4.10983C26.0607 4.31317 26.0607 4.51651 26.0607 4.71986C25.9517 5.27635 25.6037 5.68368 25.2327 6.08463C24.5136 6.86167 23.8086 7.65147 23.0985 8.43616C22.7702 8.79887 22.4426 9.16221 22.0913 9.55169C22.7288 10.0438 23.1782 10.6334 22.9462 11.4704C22.7313 12.2455 22.1799 12.7192 21.4055 12.9199C21.6451 14.0521 20.4461 15.3518 19.219 15.0599C19.0048 15.8248 18.5605 16.3947 17.7739 16.6133C16.9255 16.8492 16.3467 16.3475 15.7979 15.7821C15.4721 16.5202 14.9768 17.0123 14.203 17.18ZM10.4516 12.2857C10.4828 12.2889 10.516 12.2933 10.5491 12.2953C11.7921 12.3596 12.6023 13.5344 12.232 14.722C12.2103 14.7902 12.2588 14.9132 12.3155 14.9681C12.6807 15.3218 13.0556 15.6661 13.431 16.009C13.8766 16.4157 14.2616 16.3819 14.6995 15.9026C15.0737 15.4933 15.0501 15.0994 14.6307 14.7124C14.1577 14.2764 13.6847 13.8391 13.1958 13.3872C13.3985 13.1692 13.5917 12.9614 13.7918 12.7453C13.8721 12.816 13.9352 12.8702 13.9964 12.9263C14.9373 13.7939 15.8763 14.6646 16.8203 15.529C17.2359 15.9096 17.6458 15.8688 18.0538 15.4219C18.4362 15.0025 18.4273 14.5996 18.0232 14.2261C17.0836 13.3566 16.1427 12.4884 15.2018 11.6208C15.1413 11.5654 15.0712 11.5208 14.9928 11.4621C15.2216 11.218 15.4147 11.0121 15.613 10.8011C15.708 10.8878 15.7775 10.9496 15.8457 11.0127C16.9108 11.9963 17.9741 12.9811 19.0412 13.9622C19.4466 14.3344 19.8514 14.2981 20.2536 13.864C20.6456 13.4414 20.6482 13.0417 20.2523 12.6688C19.8571 12.2972 19.4568 11.9306 19.0584 11.5622C18.238 10.8024 17.417 10.0419 16.58 9.26612C16.7827 9.04938 16.9771 8.84158 17.183 8.62166C17.2952 8.72492 17.3946 8.81608 17.4941 8.90787C18.5401 9.87488 19.5824 10.8451 20.6335 11.8063C21.0389 12.1767 21.4354 12.1168 21.8612 11.6476C22.2086 11.2651 22.2054 10.847 21.8376 10.5059C20.9114 9.64667 20.0177 8.74851 19.0424 7.94852C17.8581 6.97705 16.6042 6.08973 15.3797 5.16735C14.7907 4.72368 14.1832 4.7052 13.5591 5.09404C13.4151 5.18392 13.2621 5.25914 13.1244 5.3573C12.26 5.97435 11.0992 5.82136 10.4178 4.77213C9.93463 4.02759 10.0538 3.11222 10.762 2.57613C11.0992 2.32052 11.453 2.08594 11.7985 1.84116C11.9107 1.76148 12.0223 1.68052 12.1555 1.58491C11.4613 1.17822 10.7729 1.13296 10.0672 1.3924C9.67009 1.53837 9.28763 1.72196 8.89751 1.88578C7.95091 2.28291 7.00494 2.28163 6.06024 1.87813C5.69435 1.72196 5.32846 1.56578 4.96129 1.4128C4.42775 1.19033 3.85915 1.30762 3.4754 1.73279C2.69262 2.60227 1.91367 3.47493 1.13662 4.3495C0.779013 4.75237 0.807699 5.14504 1.21503 5.49563C1.86394 6.05403 2.51733 6.60733 3.16943 7.16191C3.26377 7.24223 3.35939 7.32063 3.47094 7.4137C4.01213 6.76606 4.59093 6.17706 5.50567 6.41355C6.35793 6.63411 6.86725 7.22374 7.01577 8.12636C7.65258 8.08365 8.12748 8.39473 8.53863 8.84413C8.97082 9.31711 9.04986 9.87105 8.90644 10.4671C9.80842 10.8138 10.0857 11.1428 10.4516 12.2857ZM21.459 8.94803C21.5094 8.88683 21.5502 8.83393 21.5948 8.78484C22.6803 7.58454 23.7665 6.38487 24.8528 5.18456C25.2658 4.72815 25.2843 4.22966 24.9025 3.74138C24.2714 2.93374 23.6397 2.12673 23.008 1.31909C22.6351 0.842283 22.1825 0.758778 21.6725 1.07431C21.0606 1.45296 20.4569 1.84626 19.8373 2.21279C18.9819 2.71892 18.0907 2.76163 17.1881 2.34474C16.5736 2.06108 15.9712 1.75064 15.3574 1.46507C14.8111 1.21136 14.2508 1.23176 13.7542 1.5575C12.9255 2.1006 12.1262 2.68769 11.316 3.25884C11.1082 3.40545 10.9953 3.61071 11.0055 3.86568C11.0355 4.59301 11.8731 5.05834 12.5016 4.69819C12.7662 4.54648 13.0173 4.37054 13.2876 4.23094C14.0869 3.81724 14.9156 3.79429 15.6557 4.30042C17.0606 5.26041 18.4713 6.21849 19.736 7.36781C20.3065 7.88605 20.8725 8.40939 21.459 8.94803ZM7.03936 8.99201C6.92334 9.06022 6.71362 9.13225 6.5753 9.27376C5.60957 10.2586 4.65659 11.2562 3.70425 12.2538C3.31987 12.6567 3.3511 13.0538 3.78393 13.4643C4.20783 13.8672 4.61197 13.8717 4.99954 13.4688C5.94423 12.4865 6.88382 11.5004 7.82852 10.5181C8.07521 10.2618 8.18867 9.96412 8.01529 9.64285C7.82915 9.2999 7.55186 9.04046 7.03936 8.99201ZM5.06201 7.23968C4.9581 7.29514 4.75731 7.34996 4.63109 7.47745C3.88656 8.22963 3.15477 8.99456 2.42936 9.7646C2.07494 10.1413 2.13295 10.5506 2.56832 10.9534C2.97246 11.3276 3.36321 11.3289 3.7221 10.956C4.42647 10.2236 5.12702 9.48795 5.83523 8.75935C6.06662 8.52094 6.19921 8.26851 6.04112 7.94087C5.85945 7.56605 5.60256 7.28239 5.06201 7.23968ZM9.57511 12.3061C9.54962 11.9491 9.32779 11.756 9.11233 11.5622C8.76301 11.2492 8.35186 11.2556 8.02676 11.5902C7.37147 12.2647 6.72127 12.9442 6.0749 13.6269C5.78168 13.9367 5.79188 14.3459 6.08383 14.6525C6.14821 14.7201 6.21642 14.7832 6.2859 14.8457C6.63012 15.1529 7.05402 15.1516 7.37402 14.8227C8.02421 14.1547 8.67122 13.4841 9.30484 12.8014C9.4285 12.6675 9.48651 12.4725 9.57511 12.3061ZM11.5085 14.1419C11.4798 13.7754 11.2516 13.5765 11.0266 13.3815C10.6855 13.0857 10.275 13.0984 9.95694 13.4216C9.5528 13.8328 9.15313 14.2484 8.76046 14.6697C8.43473 15.0191 8.45194 15.4366 8.79233 15.7744C8.84651 15.828 8.9007 15.8815 8.95807 15.9319C9.29783 16.2302 9.71153 16.2277 10.0277 15.9077C10.4389 15.492 10.8481 15.0732 11.2382 14.6379C11.3606 14.5014 11.4199 14.3089 11.5085 14.1419Z" fill="#FFFFFF"/>
</svg>
