<svg width="22" height="22" viewBox="0 0 22 22" fill="none" xmlns="http://www.w3.org/2000/svg">
<path fill-rule="evenodd" clip-rule="evenodd" d="M16.7786 1.00052H14.8208C14.3648 1.13611 14.0796 1.40678 14.0859 1.91397C14.0883 2.10908 14.0877 2.30419 14.087 2.49931C14.0867 2.58935 14.0864 2.6794 14.0864 2.76945V3.25127H8.04933V2.38285C8.04933 2.32872 8.04928 2.27453 8.04922 2.22031C8.0491 2.11174 8.04899 2.00302 8.04933 1.8943C8.05089 1.39436 7.76158 1.13301 7.31599 1H5.35816C5.33982 1.00714 5.32148 1.01436 5.30313 1.02158C5.25364 1.04104 5.20408 1.06054 5.15425 1.07867C4.73453 1.22979 4.53269 1.50977 4.5301 1.95382C4.52832 2.24812 4.52875 2.54243 4.52919 2.84334C4.52938 2.97898 4.52958 3.11597 4.52958 3.2549C4.50056 3.2564 4.47341 3.25811 4.44753 3.25975C4.3931 3.26319 4.34424 3.26628 4.29514 3.26628C4.12397 3.26667 3.9528 3.26634 3.78163 3.26601C3.49064 3.26546 3.19966 3.2649 2.90867 3.26783C1.79338 3.27974 1.00104 4.08088 1.00104 5.19461C1.00104 6.39598 1.0011 7.59735 1.00117 8.79872C1.00136 12.4027 1.00155 16.0066 1 19.6105C0.999484 20.2932 1.19097 20.8971 1.69091 21.3789C2.05474 21.7298 2.49567 21.8866 3.00338 21.8861C6.45917 21.8841 9.91475 21.8841 13.3704 21.884C15.2907 21.8839 17.2109 21.8839 19.1313 21.8835C19.24 21.8835 19.3502 21.8835 19.4563 21.8654C20.3092 21.721 20.9587 21.0286 21.1015 20.1198C21.1069 20.0841 21.1177 20.0491 21.1284 20.0142C21.1333 19.9985 21.1381 19.9828 21.1424 19.9671V4.95655C21.1379 4.9366 21.1334 4.91666 21.1289 4.89672C21.1144 4.83233 21.0999 4.76801 21.0845 4.70399C20.8816 3.85317 20.1586 3.27922 19.2653 3.26783C18.9423 3.26391 18.619 3.26491 18.2958 3.2659C18.1504 3.26635 18.005 3.2668 17.8597 3.2668H17.6072V2.70735C17.6072 2.63761 17.6072 2.56783 17.6073 2.49803C17.6075 2.32334 17.6077 2.14854 17.6066 1.974C17.604 1.49735 17.3996 1.21943 16.9437 1.06624C16.9035 1.05249 16.8642 1.03608 16.8249 1.01967C16.8095 1.01323 16.794 1.00679 16.7786 1.00052ZM2.0123 9.06577H20.1244V9.30384C20.1244 9.92879 20.1245 10.5537 20.1245 11.1787C20.1247 13.9933 20.1248 16.8078 20.1219 19.6224C20.1213 19.7974 20.1068 19.9785 20.0597 20.1451C19.9174 20.6492 19.5997 20.8754 19.0718 20.8754H3.10585C2.44703 20.8754 2.04542 20.4903 2.01437 19.8274C2.01215 19.775 2.01221 19.7223 2.01228 19.6698C2.01229 19.6611 2.0123 19.6524 2.0123 19.6437V9.28417V9.06577ZM8.05009 4.47774C8.04946 4.41173 8.04882 4.34434 8.04882 4.27496C10.0719 4.27496 12.0618 4.27496 14.0879 4.27444C14.0879 4.33066 14.0879 4.38665 14.0878 4.44248C14.0877 4.55369 14.0876 4.66429 14.0879 4.77489C14.09 5.39697 14.4688 5.7758 15.0925 5.77736C15.5613 5.77891 16.0302 5.78046 16.4991 5.77684C17.1983 5.77115 17.6072 5.3566 17.6077 4.65793V4.26823H17.9265C18.0659 4.26823 18.2053 4.26792 18.3448 4.26761C18.647 4.26694 18.9493 4.26627 19.2514 4.26875C19.7601 4.27237 20.1234 4.63775 20.1244 5.14493C20.1255 5.82825 20.1253 6.51156 20.1251 7.20032C20.125 7.47715 20.125 7.75486 20.125 8.03381H2.02782C2.0262 8.01807 2.02412 8.00223 2.02203 7.9863C2.01745 7.95143 2.01282 7.91614 2.01282 7.88062L2.01281 7.87984C2.01126 6.96251 2.00971 6.0457 2.01126 5.12837C2.01178 4.67087 2.34559 4.29203 2.79998 4.27547C3.19005 4.26149 3.58061 4.26465 3.98406 4.2679C4.16301 4.26935 4.34449 4.27082 4.52958 4.27082C4.52958 4.32245 4.52953 4.37326 4.52947 4.4235C4.52935 4.52233 4.52924 4.61897 4.52958 4.71538C4.53269 5.33435 4.94827 5.7639 5.57242 5.77477C6.09564 5.78409 6.61887 5.78305 7.1421 5.77529C7.63996 5.76804 8.02915 5.37886 8.04778 4.88151C8.05269 4.74927 8.05142 4.61656 8.05009 4.47774ZM16.5933 2.0242V4.76196H15.0573V2.0242H16.5933ZM7.02565 2.02627V4.7661H5.62003V2.02627H7.02565ZM7.89794 18.02C7.87035 18.1749 7.84294 18.3288 7.81574 18.4813C7.80022 18.902 8.20855 19.1401 8.59515 18.9439C9.28347 18.5915 9.9692 18.2323 10.6518 17.8685C10.775 17.8028 10.8676 17.8059 10.9893 17.8711C11.6538 18.2261 12.3224 18.5729 12.9916 18.9191C13.3083 19.0826 13.6095 19.033 13.7343 18.7659C13.7974 18.6303 13.8057 18.4482 13.7808 18.296C13.6639 17.5792 13.5309 16.865 13.3942 16.1519C13.3632 15.9899 13.3906 15.8817 13.5179 15.7637C13.8912 15.4168 14.2583 15.063 14.6254 14.7093C14.7917 14.5491 14.958 14.3888 15.1249 14.2292C15.2936 14.0683 15.3914 13.8825 15.3169 13.6465C15.2444 13.4172 15.0602 13.3256 14.8382 13.2925C14.6565 13.2652 14.4749 13.2378 14.2933 13.2103C13.7231 13.1241 13.1529 13.0378 12.5817 12.9581C12.4513 12.94 12.3799 12.8929 12.3224 12.7744C12.1644 12.4486 12.0032 12.1242 11.8421 11.7997C11.6681 11.4494 11.4942 11.0992 11.3241 10.7472C11.2149 10.5216 11.071 10.3539 10.8061 10.3575C10.5499 10.3612 10.4122 10.5309 10.3072 10.7467C10.1458 11.0789 9.98209 11.4098 9.81833 11.7409C9.65113 12.0789 9.4839 12.4169 9.31918 12.7563C9.2607 12.8769 9.19342 12.94 9.05058 12.9597C8.53991 13.0291 8.0302 13.1057 7.52064 13.1823C7.28502 13.2177 7.04944 13.2531 6.8138 13.2878C6.58453 13.3215 6.38631 13.4079 6.31438 13.6449C6.24192 13.8856 6.34543 14.0755 6.52243 14.2432C6.78565 14.4924 7.04692 14.7435 7.30819 14.9946C7.5858 15.2614 7.8634 15.5282 8.14334 15.7927C8.23805 15.8817 8.27687 15.9655 8.24892 16.0944C8.20438 16.301 8.16749 16.5089 8.13056 16.7171C8.12243 16.763 8.1143 16.8088 8.10608 16.8547C8.03599 17.245 7.96642 17.6355 7.89794 18.02ZM9.10966 17.547C9.08062 17.5615 9.04807 17.5778 9.0097 17.5973C9.03065 17.471 9.05101 17.348 9.07098 17.2274C9.11807 16.9428 9.163 16.6714 9.20843 16.4003C9.21656 16.352 9.22362 16.3034 9.23068 16.2548C9.24609 16.1486 9.26151 16.0424 9.28813 15.9391C9.358 15.6695 9.26846 15.4666 9.07232 15.2834C8.79264 15.0219 8.51746 14.7556 8.23032 14.4777C8.11577 14.3668 7.99932 14.2541 7.87992 14.1392C7.98906 14.1232 8.09553 14.1076 8.20006 14.0922C8.47822 14.0514 8.74266 14.0126 9.00711 13.9746C9.10211 13.9611 9.19733 13.9482 9.29257 13.9353C9.40589 13.9199 9.51924 13.9045 9.63229 13.8882C9.81446 13.8618 9.93763 13.7624 10.0194 13.5952C10.1824 13.262 10.3493 12.9307 10.5162 12.5994C10.5782 12.4763 10.6402 12.3532 10.702 12.23C10.7233 12.1877 10.7458 12.1458 10.7729 12.0952C10.7873 12.0684 10.803 12.039 10.8205 12.0059L11.2408 12.8453C11.2822 12.9283 11.324 13.0111 11.3658 13.0939C11.4494 13.2595 11.533 13.4251 11.6134 13.5921C11.7009 13.7733 11.8396 13.8675 12.0393 13.8939C12.4429 13.9474 12.8456 14.0052 13.2484 14.0631C13.4026 14.0853 13.5567 14.1074 13.711 14.1293L13.7684 14.2039C13.7452 14.2182 13.7209 14.2316 13.6967 14.245C13.6433 14.2744 13.59 14.3039 13.5469 14.3441C13.4161 14.4669 13.2873 14.5918 13.1586 14.7168C12.9655 14.9043 12.7724 15.0917 12.5724 15.2715C12.3556 15.4661 12.294 15.6861 12.3468 15.965C12.4175 16.3396 12.4804 16.7156 12.5433 17.0918C12.5655 17.2244 12.5877 17.3571 12.6102 17.4897C12.6128 17.5062 12.6123 17.5231 12.6116 17.5468C12.6112 17.5603 12.6107 17.5761 12.6107 17.5953C12.4773 17.5234 12.3443 17.4542 12.2124 17.3856C11.9167 17.2319 11.6264 17.081 11.3495 16.9085C10.9831 16.6797 10.6586 16.6735 10.2927 16.9064C10.0527 17.0594 9.79886 17.1902 9.54506 17.321C9.43644 17.377 9.32783 17.433 9.22033 17.4907C9.18611 17.5087 9.15153 17.526 9.10966 17.547Z" fill="#FFFFFF"/>
<path d="M14.8208 1.00052V0.900517H14.8062L14.7922 0.904666L14.8208 1.00052ZM16.7786 1.00052L16.8162 0.907851L16.7981 0.900517H16.7786V1.00052ZM14.0859 1.91397L13.9859 1.91519L13.9859 1.91524L14.0859 1.91397ZM14.087 2.49931L14.187 2.49965L14.187 2.49965L14.087 2.49931ZM14.0864 3.25127V3.35127H14.1864V3.25127H14.0864ZM8.04933 3.25127H7.94933V3.35127H8.04933V3.25127ZM8.04922 2.22031L7.94922 2.22041L7.94922 2.22041L8.04922 2.22031ZM8.04933 1.8943L8.14933 1.89462L8.14933 1.89461L8.04933 1.8943ZM7.31599 1L7.34459 0.904178L7.33059 0.9H7.31599V1ZM5.35816 1V0.9H5.33938L5.32188 0.906813L5.35816 1ZM5.30313 1.02158L5.26651 0.928519L5.26651 0.928519L5.30313 1.02158ZM5.15425 1.07867L5.18812 1.17275L5.18842 1.17264L5.15425 1.07867ZM4.5301 1.95382L4.6301 1.95442L4.6301 1.9544L4.5301 1.95382ZM4.52919 2.84334L4.62919 2.8432L4.62919 2.8432L4.52919 2.84334ZM4.52958 3.2549L4.53475 3.35476L4.62958 3.34986V3.2549H4.52958ZM4.44753 3.25975L4.45384 3.35955L4.45384 3.35955L4.44753 3.25975ZM4.29514 3.26628L4.29514 3.16628L4.29492 3.16628L4.29514 3.26628ZM3.78163 3.26601L3.78182 3.16601L3.78163 3.26601ZM2.90867 3.26783L2.90766 3.16784L2.9076 3.16784L2.90867 3.26783ZM1.00117 8.79872L1.10117 8.79872L1.00117 8.79872ZM1 19.6105L1.1 19.6106L1.1 19.6106L1 19.6105ZM1.69091 21.3789L1.76033 21.307L1.7603 21.3069L1.69091 21.3789ZM3.00338 21.8861L3.00332 21.7861L3.00327 21.7861L3.00338 21.8861ZM13.3704 21.884L13.3704 21.984L13.3704 21.984L13.3704 21.884ZM19.1313 21.8835L19.1313 21.7835L19.1313 21.7835L19.1313 21.8835ZM19.4563 21.8654L19.4396 21.7668L19.4395 21.7669L19.4563 21.8654ZM21.1015 20.1198L21.2003 20.1353L21.2004 20.1346L21.1015 20.1198ZM21.1284 20.0142L21.0329 19.9848L21.0329 19.9848L21.1284 20.0142ZM21.1424 19.9671L21.2388 19.9937L21.2424 19.9806V19.9671H21.1424ZM21.1424 4.95655H21.2424V4.94534L21.2399 4.93441L21.1424 4.95655ZM21.1289 4.89672L21.0314 4.91872L21.0314 4.91872L21.1289 4.89672ZM21.0845 4.70399L20.9872 4.72719L20.9872 4.7274L21.0845 4.70399ZM19.2653 3.26783L19.2666 3.16784L19.2665 3.16784L19.2653 3.26783ZM18.2958 3.2659L18.2962 3.3659L18.2962 3.3659L18.2958 3.2659ZM17.6072 3.2668H17.5072V3.3668H17.6072V3.2668ZM17.6073 2.49803L17.5073 2.49791L17.5073 2.49791L17.6073 2.49803ZM17.6066 1.974L17.5066 1.97454L17.5066 1.97464L17.6066 1.974ZM16.9437 1.06624L16.9113 1.16085L16.9118 1.16104L16.9437 1.06624ZM16.8249 1.01967L16.8634 0.927389L16.8634 0.927388L16.8249 1.01967ZM20.1244 9.06577H20.2244V8.96577H20.1244V9.06577ZM2.0123 9.06577V8.96577H1.9123V9.06577H2.0123ZM20.1245 11.1787L20.2245 11.1787L20.2245 11.1787L20.1245 11.1787ZM20.1219 19.6224L20.2219 19.6227L20.2219 19.6225L20.1219 19.6224ZM20.0597 20.1451L19.9635 20.1179L19.9635 20.118L20.0597 20.1451ZM2.01437 19.8274L1.91446 19.8316L1.91448 19.8321L2.01437 19.8274ZM2.01228 19.6698L1.91228 19.6697L1.91228 19.6697L2.01228 19.6698ZM8.04882 4.27496V4.17496H7.94882V4.27496H8.04882ZM8.05009 4.47774L8.15009 4.47678L8.15009 4.47678L8.05009 4.47774ZM14.0879 4.27444H14.1879V4.17441L14.0879 4.17444L14.0879 4.27444ZM14.0878 4.44248L14.1878 4.44259L14.1878 4.44259L14.0878 4.44248ZM14.0879 4.77489L13.9879 4.77521L13.9879 4.77523L14.0879 4.77489ZM15.0925 5.77736L15.0928 5.67736L15.0927 5.67736L15.0925 5.77736ZM16.4991 5.77684L16.4999 5.87684L16.4999 5.87684L16.4991 5.77684ZM17.6077 4.65793L17.7077 4.65801V4.65793H17.6077ZM17.6077 4.26823V4.16823H17.5077V4.26823H17.6077ZM18.3448 4.26761L18.3445 4.16761L18.3445 4.16761L18.3448 4.26761ZM19.2514 4.26875L19.2505 4.36874L19.2506 4.36874L19.2514 4.26875ZM20.1244 5.14493L20.2244 5.14477L20.2244 5.14473L20.1244 5.14493ZM20.1251 7.20032L20.0251 7.20029L20.0251 7.20029L20.1251 7.20032ZM20.125 8.03381V8.13381H20.225V8.03381H20.125ZM2.02782 8.03381L1.92835 8.04406L1.9376 8.13381H2.02782V8.03381ZM2.02203 7.9863L2.12118 7.97328L2.12118 7.97328L2.02203 7.9863ZM2.01282 7.88062L2.11282 7.88062L2.11282 7.88043L2.01282 7.88062ZM2.01281 7.87984L1.91281 7.88001L1.91281 7.88003L2.01281 7.87984ZM2.01126 5.12837L2.11126 5.12854L2.11126 5.12848L2.01126 5.12837ZM2.79998 4.27547L2.7964 4.17554L2.79634 4.17554L2.79998 4.27547ZM3.98406 4.2679L3.98487 4.16791L3.98487 4.16791L3.98406 4.2679ZM4.52958 4.27082H4.62958V4.17082H4.52958V4.27082ZM4.52947 4.4235L4.62947 4.42361L4.62947 4.42361L4.52947 4.4235ZM4.52958 4.71538L4.42958 4.71573L4.42958 4.71588L4.52958 4.71538ZM5.57242 5.77477L5.5742 5.67479L5.57416 5.67478L5.57242 5.77477ZM7.1421 5.77529L7.14064 5.6753L7.14061 5.6753L7.1421 5.77529ZM8.04778 4.88151L8.14771 4.88525L8.14771 4.88522L8.04778 4.88151ZM16.5933 4.76196V4.86196H16.6933V4.76196H16.5933ZM16.5933 2.0242H16.6933V1.9242H16.5933V2.0242ZM15.0573 4.76196H14.9573V4.86196H15.0573V4.76196ZM15.0573 2.0242V1.9242H14.9573V2.0242H15.0573ZM7.02565 4.7661V4.8661H7.12565V4.7661H7.02565ZM7.02565 2.02627H7.12565V1.92627H7.02565V2.02627ZM5.62003 4.7661H5.52003V4.8661H5.62003V4.7661ZM5.62003 2.02627V1.92627H5.52003V2.02627H5.62003ZM7.81574 18.4813L7.71633 18.4635L7.71581 18.4776L7.81574 18.4813ZM7.89794 18.02L7.99639 18.0375L7.99639 18.0375L7.89794 18.02ZM8.59515 18.9439L8.6404 19.0331L8.64073 19.033L8.59515 18.9439ZM10.6518 17.8685L10.6989 17.9568L10.6989 17.9567L10.6518 17.8685ZM10.9893 17.8711L10.942 17.9592L10.9421 17.9593L10.9893 17.8711ZM12.9916 18.9191L12.9456 19.0079L12.9457 19.008L12.9916 18.9191ZM13.7343 18.7659L13.8249 18.8082L13.8249 18.8081L13.7343 18.7659ZM13.7808 18.296L13.6821 18.3121L13.6821 18.3121L13.7808 18.296ZM13.3942 16.1519L13.4925 16.133L13.4925 16.133L13.3942 16.1519ZM13.5179 15.7637L13.5859 15.837L13.586 15.837L13.5179 15.7637ZM14.6254 14.7093L14.6948 14.7813L14.6948 14.7813L14.6254 14.7093ZM15.1249 14.2292L15.0559 14.1569L15.0558 14.1569L15.1249 14.2292ZM15.3169 13.6465L15.4122 13.6164L15.4122 13.6163L15.3169 13.6465ZM14.8382 13.2925L14.8233 13.3914L14.8234 13.3914L14.8382 13.2925ZM14.2933 13.2103L14.2784 13.3092L14.2784 13.3092L14.2933 13.2103ZM12.5817 12.9581L12.5955 12.8591L12.5955 12.8591L12.5817 12.9581ZM12.3224 12.7744L12.4124 12.7308L12.4124 12.7308L12.3224 12.7744ZM11.8421 11.7997L11.7525 11.8442L11.7525 11.8442L11.8421 11.7997ZM11.3241 10.7472L11.4141 10.7037L11.4141 10.7037L11.3241 10.7472ZM10.8061 10.3575L10.8047 10.2575L10.8046 10.2576L10.8061 10.3575ZM10.3072 10.7467L10.2172 10.703L10.2172 10.703L10.3072 10.7467ZM9.81833 11.7409L9.90797 11.7852L9.90797 11.7852L9.81833 11.7409ZM9.31918 12.7563L9.22922 12.7126L9.2292 12.7127L9.31918 12.7563ZM9.05058 12.9597L9.06404 13.0588L9.06422 13.0588L9.05058 12.9597ZM7.52064 13.1823L7.53551 13.2812L7.53551 13.2812L7.52064 13.1823ZM6.8138 13.2878L6.82831 13.3868L6.82836 13.3868L6.8138 13.2878ZM6.31438 13.6449L6.21869 13.6159L6.21862 13.6161L6.31438 13.6449ZM6.52243 14.2432L6.45365 14.3158L6.45368 14.3158L6.52243 14.2432ZM7.30819 14.9946L7.2389 15.0667L7.2389 15.0667L7.30819 14.9946ZM8.14334 15.7927L8.07467 15.8654L8.07486 15.8656L8.14334 15.7927ZM8.24892 16.0944L8.15119 16.0732L8.15117 16.0733L8.24892 16.0944ZM8.13056 16.7171L8.0321 16.6997L8.0321 16.6997L8.13056 16.7171ZM8.10608 16.8547L8.20451 16.8723L8.20451 16.8723L8.10608 16.8547ZM9.0097 17.5973L8.91104 17.581L8.87868 17.7761L9.05501 17.6865L9.0097 17.5973ZM9.10966 17.547L9.06491 17.4576L9.06491 17.4576L9.10966 17.547ZM9.07098 17.2274L9.16963 17.2437L9.16963 17.2437L9.07098 17.2274ZM9.20843 16.4003L9.10982 16.3837L9.1098 16.3837L9.20843 16.4003ZM9.23068 16.2548L9.13171 16.2404L9.13171 16.2404L9.23068 16.2548ZM9.28813 15.9391L9.19132 15.9141L9.19129 15.9142L9.28813 15.9391ZM9.07232 15.2834L9.00401 15.3565L9.00406 15.3565L9.07232 15.2834ZM8.23032 14.4777L8.16078 14.5496L8.16078 14.5496L8.23032 14.4777ZM7.87992 14.1392L7.86543 14.0402L7.66366 14.0698L7.81056 14.2112L7.87992 14.1392ZM8.20006 14.0922L8.21459 14.1912L8.21459 14.1912L8.20006 14.0922ZM9.00711 13.9746L8.99307 13.8756L8.99289 13.8756L9.00711 13.9746ZM9.29257 13.9353L9.27911 13.8362L9.27911 13.8362L9.29257 13.9353ZM9.63229 13.8882L9.64657 13.9871L9.64663 13.9871L9.63229 13.8882ZM10.0194 13.5952L9.92958 13.5513L9.92958 13.5513L10.0194 13.5952ZM10.5162 12.5994L10.6055 12.6443L10.6055 12.6443L10.5162 12.5994ZM10.702 12.23L10.6127 12.185L10.6127 12.1851L10.702 12.23ZM10.7729 12.0952L10.861 12.1424L10.861 12.1424L10.7729 12.0952ZM10.8205 12.0059L10.91 11.9611L10.8231 11.7875L10.7322 11.9591L10.8205 12.0059ZM11.2408 12.8453L11.3303 12.8007L11.3302 12.8006L11.2408 12.8453ZM11.6134 13.5921L11.5233 13.6355L11.5234 13.6356L11.6134 13.5921ZM12.0393 13.8939L12.0525 13.7947L12.0524 13.7947L12.0393 13.8939ZM13.2484 14.0631L13.2342 14.1621L13.2342 14.1621L13.2484 14.0631ZM13.711 14.1293L13.7902 14.0683L13.7653 14.036L13.725 14.0303L13.711 14.1293ZM13.7684 14.2039L13.821 14.2889L13.9153 14.2306L13.8476 14.1428L13.7684 14.2039ZM13.6967 14.245L13.6484 14.1574L13.6484 14.1574L13.6967 14.245ZM13.5469 14.3441L13.4787 14.271L13.4785 14.2712L13.5469 14.3441ZM13.1586 14.7168L13.2283 14.7886L13.2283 14.7886L13.1586 14.7168ZM12.5724 15.2715L12.6392 15.346L12.6393 15.3459L12.5724 15.2715ZM12.3468 15.965L12.445 15.9465L12.445 15.9464L12.3468 15.965ZM12.5433 17.0918L12.6419 17.0753L12.6419 17.0753L12.5433 17.0918ZM12.6102 17.4897L12.7089 17.4739L12.7088 17.4729L12.6102 17.4897ZM12.6116 17.5468L12.7115 17.5498L12.7115 17.5498L12.6116 17.5468ZM12.6107 17.5953L12.5633 17.6833L12.7107 17.7627V17.5953H12.6107ZM12.2124 17.3856L12.2585 17.2969L12.2585 17.2969L12.2124 17.3856ZM11.3495 16.9085L11.2965 16.9933L11.2966 16.9934L11.3495 16.9085ZM10.2927 16.9064L10.239 16.8221L10.2389 16.8221L10.2927 16.9064ZM9.54506 17.321L9.49925 17.2322L9.49924 17.2322L9.54506 17.321ZM9.22033 17.4907L9.26694 17.5792L9.26763 17.5788L9.22033 17.4907ZM14.8208 1.10052H16.7786V0.900517H14.8208V1.10052ZM14.1858 1.91274C14.183 1.6795 14.2466 1.50987 14.3558 1.38316C14.4665 1.25456 14.6323 1.1609 14.8493 1.09637L14.7922 0.904666C14.5533 0.975727 14.3485 1.0852 14.2042 1.25263C14.0584 1.42195 13.9825 1.64125 13.9859 1.91519L14.1858 1.91274ZM14.187 2.49965C14.1877 2.30467 14.1883 2.10875 14.1858 1.9127L13.9859 1.91524C13.9883 2.10941 13.9877 2.30371 13.987 2.49896L14.187 2.49965ZM14.1864 2.76945C14.1864 2.6796 14.1867 2.58973 14.187 2.49965L13.987 2.49896C13.9867 2.58898 13.9864 2.6792 13.9864 2.76945H14.1864ZM14.1864 3.25127V2.76945H13.9864V3.25127H14.1864ZM8.04933 3.35127H14.0864V3.15127H8.04933V3.35127ZM7.94933 2.38285V3.25127H8.14933V2.38285H7.94933ZM7.94922 2.22041C7.94928 2.27465 7.94933 2.32878 7.94933 2.38285H8.14933C8.14933 2.32866 8.14928 2.27442 8.14922 2.2202L7.94922 2.22041ZM7.94933 1.89398C7.94899 2.00295 7.9491 2.11188 7.94922 2.22041L8.14922 2.2202C8.1491 2.1116 8.14899 2.00309 8.14933 1.89462L7.94933 1.89398ZM7.28739 1.09582C7.49974 1.15921 7.66429 1.25019 7.77545 1.37582C7.8848 1.49939 7.95005 1.66495 7.94933 1.89399L8.14933 1.89461C8.15017 1.62371 8.07154 1.40862 7.92523 1.24328C7.78074 1.07999 7.57783 0.973799 7.34459 0.904178L7.28739 1.09582ZM5.35816 1.1H7.31599V0.9H5.35816V1.1ZM5.33974 1.11463C5.35812 1.1074 5.37629 1.10025 5.39443 1.09319L5.32188 0.906813C5.30334 0.914029 5.28484 0.92131 5.26651 0.928519L5.33974 1.11463ZM5.18842 1.17264C5.23969 1.154 5.29046 1.13402 5.33974 1.11463L5.26651 0.928519C5.21682 0.948069 5.16848 0.967084 5.12007 0.984686L5.18842 1.17264ZM4.6301 1.9544C4.6313 1.7476 4.67868 1.58821 4.76709 1.46456C4.85561 1.34077 4.99201 1.24336 5.18812 1.17275L5.12037 0.984578C4.89676 1.06509 4.72239 1.18323 4.60441 1.34823C4.48633 1.51336 4.43149 1.71598 4.4301 1.95323L4.6301 1.9544ZM4.62919 2.8432C4.62875 2.54222 4.62832 2.24829 4.6301 1.95442L4.4301 1.95321C4.42832 2.24795 4.42875 2.54264 4.42919 2.84349L4.62919 2.8432ZM4.62958 3.2549C4.62958 3.11588 4.62938 2.97883 4.62919 2.8432L4.42919 2.84349C4.42938 2.97914 4.42958 3.11605 4.42958 3.2549H4.62958ZM4.45384 3.35955C4.47978 3.35791 4.50638 3.35623 4.53475 3.35476L4.52442 3.15503C4.49474 3.15656 4.46704 3.15832 4.44122 3.15995L4.45384 3.35955ZM4.29514 3.36628C4.34795 3.36628 4.40002 3.36295 4.45384 3.35955L4.44122 3.15995C4.38618 3.16343 4.34053 3.16628 4.29514 3.16628V3.36628ZM3.78144 3.36601C3.95258 3.36634 4.12395 3.36667 4.29536 3.36628L4.29492 3.16628C4.12399 3.16667 3.95303 3.16634 3.78182 3.16601L3.78144 3.36601ZM2.90967 3.36783C3.19996 3.3649 3.49035 3.36546 3.78144 3.36601L3.78182 3.16601C3.49093 3.16546 3.19935 3.1649 2.90766 3.16784L2.90967 3.36783ZM1.10104 5.19461C1.10104 4.13573 1.84922 3.37915 2.90973 3.36783L2.9076 3.16784C1.73754 3.18033 0.901036 4.02603 0.901036 5.19461H1.10104ZM1.10117 8.79872C1.1011 7.59735 1.10104 6.39598 1.10104 5.19461H0.901036C0.901036 6.39599 0.901101 7.59736 0.901165 8.79873L1.10117 8.79872ZM1.1 19.6106C1.10155 16.0066 1.10136 12.4026 1.10117 8.79872L0.901165 8.79873C0.90136 12.4027 0.901554 16.0066 0.900001 19.6105L1.1 19.6106ZM1.7603 21.3069C1.28443 20.8483 1.0995 20.273 1.1 19.6106L0.900001 19.6105C0.899468 20.3133 1.09751 20.9459 1.62151 21.4509L1.7603 21.3069ZM3.00327 21.7861C2.51838 21.7866 2.10336 21.6378 1.76033 21.307L1.62149 21.4509C2.00611 21.8219 2.47297 21.9867 3.00348 21.9861L3.00327 21.7861ZM13.3704 21.784C9.91475 21.7841 6.45914 21.7841 3.00332 21.7861L3.00343 21.9861C6.45919 21.9841 9.91474 21.9841 13.3704 21.984L13.3704 21.784ZM19.1313 21.7835C17.2109 21.7839 15.2907 21.7839 13.3704 21.784L13.3704 21.984C15.2907 21.9839 17.2109 21.9839 19.1313 21.9835L19.1313 21.7835ZM19.4395 21.7669C19.3432 21.7833 19.2415 21.7835 19.1313 21.7835V21.9835C19.2384 21.9835 19.3572 21.9838 19.4731 21.964L19.4395 21.7669ZM21.0028 20.1043C20.866 20.9746 20.2463 21.6303 19.4396 21.7668L19.473 21.964C20.3721 21.8118 21.0514 21.0825 21.2003 20.1353L21.0028 20.1043ZM21.0329 19.9848C21.0225 20.0184 21.0093 20.0606 21.0026 20.105L21.2004 20.1346C21.2045 20.1076 21.2128 20.0799 21.224 20.0437L21.0329 19.9848ZM21.046 19.9405C21.0422 19.9546 21.0378 19.9688 21.0329 19.9848L21.224 20.0437C21.2287 20.0282 21.234 20.0111 21.2388 19.9937L21.046 19.9405ZM21.0424 4.95655V19.9671H21.2424V4.95655H21.0424ZM21.0314 4.91872C21.0358 4.93864 21.0404 4.95866 21.0449 4.97869L21.2399 4.93441C21.2354 4.91454 21.231 4.89467 21.2265 4.87471L21.0314 4.91872ZM20.9872 4.7274C21.0025 4.7906 21.0168 4.85421 21.0314 4.91872L21.2265 4.87472C21.212 4.81045 21.1973 4.74542 21.1817 4.68059L20.9872 4.7274ZM19.2641 3.36783C20.1125 3.37864 20.7952 3.92186 20.9872 4.72719L21.1817 4.6808C20.968 3.78447 20.2047 3.1798 19.2666 3.16784L19.2641 3.36783ZM18.2962 3.3659C18.6195 3.3649 18.942 3.36391 19.2641 3.36783L19.2665 3.16784C18.9426 3.1639 18.6186 3.16491 18.2955 3.1659L18.2962 3.3659ZM17.8597 3.3668C18.0052 3.3668 18.1508 3.36635 18.2962 3.3659L18.2955 3.1659C18.1501 3.16635 18.0049 3.1668 17.8597 3.1668V3.3668ZM17.6072 3.3668H17.8597V3.1668H17.6072V3.3668ZM17.5072 2.70735V3.2668H17.7072V2.70735H17.5072ZM17.5073 2.49791C17.5072 2.5677 17.5072 2.63754 17.5072 2.70735H17.7072C17.7072 2.63768 17.7072 2.56796 17.7073 2.49815L17.5073 2.49791ZM17.5066 1.97464C17.5077 2.14873 17.5075 2.32315 17.5073 2.49791L17.7073 2.49815C17.7075 2.32352 17.7077 2.14834 17.7066 1.97336L17.5066 1.97464ZM16.9118 1.16104C17.127 1.23334 17.2719 1.33133 17.3645 1.45787C17.4569 1.58423 17.5054 1.75031 17.5066 1.97454L17.7066 1.97346C17.7053 1.72104 17.6503 1.50983 17.5259 1.33978C17.4016 1.1699 17.2163 1.05234 16.9755 0.971452L16.9118 1.16104ZM16.7864 1.11196C16.8252 1.12814 16.8675 1.14586 16.9113 1.16085L16.9761 0.971642C16.9396 0.95913 16.9032 0.944008 16.8634 0.927389L16.7864 1.11196ZM16.741 1.09318C16.7559 1.09924 16.7709 1.10548 16.7864 1.11196L16.8634 0.927388C16.8481 0.92098 16.8322 0.914346 16.8162 0.907851L16.741 1.09318ZM20.1244 8.96577H2.0123V9.16577H20.1244V8.96577ZM20.2244 9.30384V9.06577H20.0244V9.30384H20.2244ZM20.2245 11.1787C20.2245 10.5537 20.2244 9.92878 20.2244 9.30384H20.0244C20.0244 9.92879 20.0245 10.5537 20.0245 11.1787L20.2245 11.1787ZM20.2219 19.6225C20.2248 16.8079 20.2247 13.9933 20.2245 11.1787L20.0245 11.1787C20.0247 13.9933 20.0248 16.8078 20.0219 19.6223L20.2219 19.6225ZM20.156 20.1723C20.2066 19.9934 20.2213 19.8021 20.2219 19.6227L20.0219 19.6221C20.0213 19.7926 20.0071 19.9636 19.9635 20.1179L20.156 20.1723ZM19.0718 20.9754C19.3496 20.9754 19.584 20.9158 19.7694 20.78C19.9554 20.6438 20.0806 20.4394 20.156 20.1723L19.9635 20.118C19.8966 20.3549 19.7917 20.5157 19.6513 20.6186C19.5103 20.7219 19.3218 20.7754 19.0718 20.7754V20.9754ZM3.10585 20.9754H19.0718V20.7754H3.10585V20.9754ZM1.91448 19.8321C1.9309 20.1828 2.04622 20.4713 2.25545 20.6721C2.46475 20.873 2.75684 20.9754 3.10585 20.9754V20.7754C2.79604 20.7754 2.55791 20.6852 2.39394 20.5278C2.2299 20.3704 2.12888 20.1349 2.11426 19.8227L1.91448 19.8321ZM1.91228 19.6697C1.91221 19.7218 1.91213 19.7767 1.91446 19.8316L2.11428 19.8231C2.11217 19.7733 2.11221 19.7228 2.11228 19.6699L1.91228 19.6697ZM1.9123 19.6437C1.9123 19.6523 1.91229 19.661 1.91228 19.6697L2.11228 19.6699C2.11229 19.6612 2.1123 19.6524 2.1123 19.6437H1.9123ZM1.9123 9.28417V19.6437H2.1123V9.28417H1.9123ZM1.9123 9.06577V9.28417H2.1123V9.06577H1.9123ZM7.94882 4.27496C7.94882 4.34489 7.94947 4.41275 7.9501 4.4787L8.15009 4.47678C8.14946 4.41071 8.14882 4.34378 8.14882 4.27496H7.94882ZM14.0879 4.17444C12.0618 4.17496 10.0719 4.17496 8.04882 4.17496V4.37496C10.0719 4.37496 12.0618 4.37496 14.0879 4.37444L14.0879 4.17444ZM14.1878 4.44259C14.1879 4.38676 14.1879 4.33072 14.1879 4.27444H13.9879C13.9879 4.3306 13.9879 4.38654 13.9878 4.44238L14.1878 4.44259ZM14.1879 4.77458C14.1876 4.66422 14.1877 4.55383 14.1878 4.44259L13.9878 4.44238C13.9877 4.55356 13.9876 4.66436 13.9879 4.77521L14.1879 4.77458ZM15.0927 5.67736C14.8012 5.67663 14.5781 5.58816 14.4278 5.43806C14.2774 5.28796 14.1889 5.06523 14.1879 4.77456L13.9879 4.77523C13.989 5.10663 14.0909 5.38436 14.2864 5.57959C14.482 5.77481 14.7601 5.87653 15.0922 5.87736L15.0927 5.67736ZM16.4983 5.67684C16.0301 5.68046 15.5618 5.67891 15.0928 5.67736L15.0921 5.87736C15.5609 5.87891 16.0304 5.88046 16.4999 5.87684L16.4983 5.67684ZM17.5077 4.65786C17.5074 4.98777 17.4111 5.23832 17.2443 5.40691C17.0775 5.57546 16.8283 5.67416 16.4983 5.67684L16.4999 5.87684C16.8691 5.87383 17.1739 5.76241 17.3865 5.54759C17.599 5.33282 17.7074 5.02677 17.7077 4.65801L17.5077 4.65786ZM17.5077 4.26823V4.65793H17.7077V4.26823H17.5077ZM17.9265 4.16823H17.6077V4.36823H17.9265V4.16823ZM18.3445 4.16761C18.2051 4.16792 18.0657 4.16823 17.9265 4.16823V4.36823C18.066 4.36823 18.2055 4.36792 18.345 4.36761L18.3445 4.16761ZM19.2522 4.16875C18.9495 4.16626 18.6467 4.16694 18.3445 4.16761L18.345 4.36761C18.6473 4.36694 18.9491 4.36627 19.2505 4.36874L19.2522 4.16875ZM20.2244 5.14473C20.2233 4.58259 19.8156 4.17276 19.2521 4.16875L19.2506 4.36874C19.7046 4.37198 20.0235 4.69291 20.0244 5.14514L20.2244 5.14473ZM20.2251 7.20035C20.2253 6.51161 20.2255 5.8282 20.2244 5.14477L20.0244 5.14509C20.0255 5.82829 20.0253 6.51151 20.0251 7.20029L20.2251 7.20035ZM20.225 8.03381C20.225 7.75488 20.225 7.47719 20.2251 7.20035L20.0251 7.20029C20.025 7.47712 20.025 7.75484 20.025 8.03381H20.225ZM2.02782 8.13381H20.125V7.93381H2.02782V8.13381ZM1.92288 7.99932C1.925 8.01549 1.9269 8.02994 1.92835 8.04406L2.1273 8.02355C2.12551 8.00619 2.12324 7.98896 2.12118 7.97328L1.92288 7.99932ZM1.91282 7.88062C1.91282 7.92377 1.91844 7.96553 1.92288 7.99932L2.12118 7.97328C2.11646 7.93732 2.11282 7.90852 2.11282 7.88062H1.91282ZM1.91281 7.88003L1.91282 7.8808L2.11282 7.88043L2.11281 7.87966L1.91281 7.88003ZM1.91126 5.1282C1.90971 6.04573 1.91126 6.96271 1.91281 7.88001L2.11281 7.87967C2.11126 6.96232 2.10971 6.04567 2.11126 5.12854L1.91126 5.1282ZM2.79634 4.17554C2.28299 4.19425 1.91184 4.62238 1.91126 5.12826L2.11126 5.12848C2.11173 4.71936 2.40819 4.38982 2.80363 4.37541L2.79634 4.17554ZM3.98487 4.16791C3.58181 4.16465 3.18903 4.16146 2.7964 4.17554L2.80357 4.37541C3.19107 4.36152 3.57942 4.36464 3.98325 4.3679L3.98487 4.16791ZM4.52958 4.17082C4.34496 4.17082 4.16387 4.16935 3.98487 4.16791L3.98325 4.3679C4.16214 4.36935 4.34402 4.37082 4.52958 4.37082V4.17082ZM4.62947 4.42361C4.62952 4.37338 4.62958 4.32251 4.62958 4.27082H4.42958C4.42958 4.32238 4.42953 4.37313 4.42947 4.42338L4.62947 4.42361ZM4.62958 4.71502C4.62924 4.61889 4.62935 4.52248 4.62947 4.42361L4.42947 4.42338C4.42935 4.52217 4.42924 4.61905 4.42958 4.71573L4.62958 4.71502ZM5.57416 5.67478C5.28526 5.66975 5.05141 5.56838 4.88955 5.40314C4.72759 5.23779 4.63102 5.00163 4.62958 4.71488L4.42958 4.71588C4.43125 5.0481 4.54402 5.3362 4.74667 5.54309C4.94942 5.75008 5.23542 5.86892 5.57067 5.87475L5.57416 5.67478ZM7.14061 5.6753C6.61823 5.68305 6.09612 5.68408 5.5742 5.67479L5.57064 5.87475C6.09517 5.88409 6.61951 5.88305 7.14358 5.87528L7.14061 5.6753ZM7.94785 4.87776C7.93116 5.3232 7.58405 5.66884 7.14064 5.6753L7.14355 5.87528C7.69587 5.86724 8.12713 5.43451 8.14771 4.88525L7.94785 4.87776ZM7.9501 4.4787C7.95143 4.61794 7.95266 4.74829 7.94785 4.8778L8.14771 4.88522C8.15272 4.75025 8.15141 4.61519 8.15009 4.47678L7.9501 4.4787ZM16.6933 4.76196V2.0242H16.4933V4.76196H16.6933ZM15.0573 4.86196H16.5933V4.66196H15.0573V4.86196ZM14.9573 2.0242V4.76196H15.1573V2.0242H14.9573ZM16.5933 1.9242H15.0573V2.1242H16.5933V1.9242ZM7.12565 4.7661V2.02627H6.92565V4.7661H7.12565ZM5.62003 4.8661H7.02565V4.6661H5.62003V4.8661ZM5.52003 2.02627V4.7661H5.72003V2.02627H5.52003ZM7.02565 1.92627H5.62003V2.12627H7.02565V1.92627ZM7.91419 18.4988C7.94139 18.3463 7.9688 18.1924 7.99639 18.0375L7.79949 18.0025C7.7719 18.1574 7.74449 18.3112 7.7173 18.4637L7.91419 18.4988ZM8.5499 18.8548C8.38463 18.9386 8.22227 18.9267 8.10546 18.8578C7.98959 18.7895 7.90922 18.6598 7.91568 18.485L7.71581 18.4776C7.70674 18.7235 7.82277 18.9233 8.00384 19.0301C8.18397 19.1364 8.41908 19.1454 8.6404 19.0331L8.5499 18.8548ZM10.6048 17.7803C9.92259 18.1439 9.23735 18.5028 8.54957 18.8549L8.64073 19.033C9.32959 18.6802 10.0158 18.3208 10.6989 17.9568L10.6048 17.7803ZM11.0365 17.783C10.9672 17.7458 10.8976 17.7217 10.8225 17.7207C10.7469 17.7197 10.6762 17.7422 10.6048 17.7803L10.6989 17.9567C10.7506 17.9291 10.7878 17.9203 10.8198 17.9207C10.8522 17.9211 10.8897 17.9312 10.942 17.9592L11.0365 17.783ZM13.0376 18.8303C12.3684 18.4841 11.7002 18.1376 11.0364 17.7829L10.9421 17.9593C11.6073 18.3147 12.2765 18.6617 12.9456 19.0079L13.0376 18.8303ZM13.6437 18.7236C13.5948 18.8282 13.5148 18.8866 13.4159 18.9058C13.3133 18.9258 13.1819 18.9048 13.0375 18.8303L12.9457 19.008C13.1181 19.097 13.2956 19.1329 13.454 19.1021C13.616 19.0707 13.749 18.9707 13.8249 18.8082L13.6437 18.7236ZM13.6821 18.3121C13.7051 18.4524 13.6954 18.6124 13.6436 18.7237L13.8249 18.8081C13.8994 18.6482 13.9063 18.4439 13.8795 18.2799L13.6821 18.3121ZM13.296 16.1707C13.4326 16.8836 13.5654 17.5967 13.6821 18.3121L13.8795 18.2799C13.7623 17.5617 13.6291 16.8464 13.4925 16.133L13.296 16.1707ZM13.45 15.6904C13.3777 15.7574 13.3266 15.8283 13.301 15.9122C13.2757 15.9954 13.2788 16.0808 13.296 16.1707L13.4925 16.133C13.4786 16.061 13.4799 16.0113 13.4924 15.9704C13.5046 15.9302 13.5309 15.888 13.5859 15.837L13.45 15.6904ZM14.556 14.6373C14.1888 14.9911 13.8223 15.3443 13.4499 15.6905L13.586 15.837C13.96 15.4893 14.3278 15.1349 14.6948 14.7813L14.556 14.6373ZM15.0558 14.1569C14.8887 14.3167 14.7223 14.4771 14.556 14.6373L14.6948 14.7813C14.8611 14.6211 15.0273 14.4609 15.194 14.3015L15.0558 14.1569ZM15.2215 13.6766C15.2521 13.7735 15.2467 13.8559 15.2185 13.9307C15.1895 14.0078 15.134 14.0823 15.0559 14.1569L15.1939 14.3016C15.2845 14.2152 15.3623 14.1163 15.4057 14.0013C15.4499 13.8839 15.4562 13.7554 15.4122 13.6164L15.2215 13.6766ZM14.8234 13.3914C14.9261 13.4067 15.0117 13.4345 15.0778 13.4789C15.1419 13.522 15.1921 13.5835 15.2215 13.6766L15.4122 13.6163C15.3692 13.4801 15.2911 13.3813 15.1894 13.3129C15.0898 13.246 14.9723 13.2114 14.8529 13.1936L14.8234 13.3914ZM14.2784 13.3092C14.46 13.3366 14.6416 13.3641 14.8233 13.3914L14.853 13.1936C14.6714 13.1663 14.4899 13.1389 14.3083 13.1114L14.2784 13.3092ZM12.5679 13.0572C13.1384 13.1368 13.708 13.2229 14.2784 13.3092L14.3083 13.1114C13.7381 13.0252 13.1673 12.9389 12.5955 12.8591L12.5679 13.0572ZM12.2324 12.818C12.2661 12.8874 12.308 12.9444 12.3675 12.9859C12.4264 13.0271 12.494 13.0469 12.568 13.0572L12.5955 12.8591C12.539 12.8513 12.5057 12.8385 12.4819 12.8219C12.4588 12.8058 12.4363 12.78 12.4124 12.7308L12.2324 12.818ZM11.7525 11.8442C11.9137 12.1687 12.0747 12.4928 12.2325 12.8181L12.4124 12.7308C12.2541 12.4045 12.0928 12.0796 11.9316 11.7552L11.7525 11.8442ZM11.2341 10.7908C11.4044 11.1432 11.5786 11.494 11.7525 11.8442L11.9316 11.7552C11.7576 11.4049 11.5839 11.0551 11.4141 10.7037L11.2341 10.7908ZM10.8074 10.4575C10.9159 10.456 10.9947 10.4887 11.0591 10.5429C11.1263 10.5995 11.1821 10.6834 11.2341 10.7908L11.4141 10.7037C11.3569 10.5855 11.2862 10.4727 11.1879 10.3899C11.0868 10.3048 10.9612 10.2554 10.8047 10.2575L10.8074 10.4575ZM10.3971 10.7905C10.4975 10.5842 10.6101 10.4603 10.8075 10.4575L10.8046 10.2576C10.4896 10.262 10.3269 10.4776 10.2172 10.703L10.3971 10.7905ZM9.90797 11.7852C10.0717 11.4542 10.2356 11.1229 10.3971 10.7904L10.2172 10.703C10.0561 11.0348 9.89249 11.3655 9.7287 11.6965L9.90797 11.7852ZM9.40914 12.8C9.57367 12.461 9.74073 12.1233 9.90797 11.7852L9.7287 11.6965C9.56152 12.0345 9.39413 12.3729 9.22922 12.7126L9.40914 12.8ZM9.06422 13.0588C9.14835 13.0472 9.21916 13.0214 9.27867 12.9742C9.33716 12.9278 9.37666 12.867 9.40916 12.7999L9.2292 12.7127C9.20322 12.7662 9.17983 12.7973 9.15435 12.8175C9.1299 12.8369 9.09565 12.8526 9.03694 12.8606L9.06422 13.0588ZM7.53551 13.2812C8.04519 13.2046 8.55419 13.128 9.06404 13.0588L9.03712 12.8606C8.52563 12.9301 8.01522 13.0068 7.50577 13.0834L7.53551 13.2812ZM6.82836 13.3868C7.06418 13.352 7.29991 13.3166 7.53551 13.2812L7.50577 13.0834C7.27013 13.1188 7.0347 13.1542 6.79923 13.1889L6.82836 13.3868ZM6.41007 13.674C6.46491 13.4933 6.61227 13.4185 6.82831 13.3868L6.79928 13.1889C6.55679 13.2245 6.30772 13.3225 6.21869 13.6159L6.41007 13.674ZM6.5912 14.1706C6.42718 14.0152 6.35332 13.8624 6.41013 13.6737L6.21862 13.6161C6.13052 13.9087 6.26368 14.1358 6.45365 14.3158L6.5912 14.1706ZM7.37749 14.9225C7.11626 14.6714 6.85471 14.42 6.59117 14.1706L6.45368 14.3158C6.71658 14.5647 6.97758 14.8155 7.2389 15.0667L7.37749 14.9225ZM8.21202 15.72C7.93244 15.4559 7.65515 15.1893 7.37749 14.9225L7.2389 15.0667C7.51645 15.3334 7.79437 15.6006 8.07467 15.8654L8.21202 15.72ZM8.34665 16.1156C8.36379 16.0365 8.3619 15.9633 8.33578 15.8935C8.31027 15.8254 8.26504 15.7698 8.21183 15.7198L8.07486 15.8656C8.11635 15.9046 8.13789 15.9354 8.14848 15.9637C8.15845 15.9903 8.16199 16.0234 8.15119 16.0732L8.34665 16.1156ZM8.22902 16.7346C8.26601 16.5261 8.30259 16.3199 8.34667 16.1155L8.15117 16.0733C8.10618 16.282 8.06898 16.4918 8.0321 16.6997L8.22902 16.7346ZM8.20451 16.8723C8.21275 16.8264 8.2209 16.7804 8.22902 16.7346L8.0321 16.6997C8.02397 16.7455 8.01585 16.7913 8.00765 16.837L8.20451 16.8723ZM7.99639 18.0375C8.06487 17.6531 8.13443 17.2626 8.20451 16.8723L8.00766 16.837C7.93755 17.2274 7.86797 17.618 7.79949 18.0025L7.99639 18.0375ZM9.05501 17.6865C9.09307 17.6671 9.12537 17.651 9.15442 17.6364L9.06491 17.4576C9.03587 17.4721 9.00306 17.4885 8.96438 17.5082L9.05501 17.6865ZM8.97232 17.211C8.95235 17.3317 8.93199 17.4546 8.91104 17.581L9.10835 17.6137C9.12931 17.4873 9.14967 17.3643 9.16963 17.2437L8.97232 17.211ZM9.1098 16.3837C9.06435 16.655 9.01941 16.9265 8.97232 17.211L9.16963 17.2437C9.21673 16.9591 9.26164 16.6878 9.30705 16.4168L9.1098 16.3837ZM9.13171 16.2404C9.12463 16.2892 9.11773 16.3367 9.10982 16.3837L9.30704 16.4169C9.31539 16.3673 9.32261 16.3176 9.32964 16.2691L9.13171 16.2404ZM9.19129 15.9142C9.1631 16.0236 9.14699 16.1352 9.13171 16.2404L9.32964 16.2691C9.34518 16.1621 9.35992 16.0613 9.38496 15.9641L9.19129 15.9142ZM9.00406 15.3565C9.09456 15.441 9.15457 15.5247 9.18576 15.6124C9.21647 15.6987 9.22185 15.7963 9.19132 15.9141L9.38493 15.9642C9.42428 15.8124 9.41982 15.6737 9.3742 15.5454C9.32905 15.4184 9.24622 15.309 9.14058 15.2104L9.00406 15.3565ZM8.16078 14.5496C8.4478 14.8273 8.7236 15.0942 9.00401 15.3565L9.14062 15.2104C8.86167 14.9495 8.58711 14.6838 8.29987 14.4058L8.16078 14.5496ZM7.81056 14.2112C7.92985 14.3261 8.04622 14.4387 8.16078 14.5496L8.29987 14.4058C8.18533 14.295 8.06879 14.1822 7.94928 14.0671L7.81056 14.2112ZM8.18554 13.9933C8.081 14.0086 7.97455 14.0242 7.86543 14.0402L7.8944 14.2381C8.00356 14.2221 8.11005 14.2065 8.21459 14.1912L8.18554 13.9933ZM8.99289 13.8756C8.72827 13.9136 8.46367 13.9525 8.18554 13.9933L8.21459 14.1912C8.49277 14.1503 8.75706 14.1115 9.02133 14.0736L8.99289 13.8756ZM9.27911 13.8362C9.18392 13.8491 9.08841 13.8621 8.99307 13.8756L9.02115 14.0736C9.11581 14.0602 9.21074 14.0473 9.30603 14.0343L9.27911 13.8362ZM9.61801 13.7892C9.50544 13.8054 9.3925 13.8208 9.27911 13.8362L9.30603 14.0343C9.41928 14.019 9.53304 14.0035 9.64657 13.9871L9.61801 13.7892ZM9.92958 13.5513C9.8606 13.6923 9.76369 13.7681 9.61795 13.7892L9.64663 13.9871C9.86523 13.9555 10.0147 13.8325 10.1092 13.6392L9.92958 13.5513ZM10.4269 12.5544C10.26 12.8857 10.0929 13.2175 9.92958 13.5513L10.1092 13.6392C10.272 13.3066 10.4386 12.9758 10.6055 12.6443L10.4269 12.5544ZM10.6127 12.1851C10.5509 12.3083 10.4889 12.4313 10.4269 12.5544L10.6055 12.6443C10.6675 12.5213 10.7296 12.3981 10.7914 12.2748L10.6127 12.1851ZM10.6848 12.048C10.6577 12.0984 10.6347 12.1414 10.6127 12.185L10.7913 12.275C10.812 12.234 10.8338 12.1933 10.861 12.1424L10.6848 12.048ZM10.7322 11.9591C10.7147 11.992 10.6991 12.0211 10.6848 12.048L10.861 12.1424C10.8754 12.1156 10.8912 12.0861 10.9089 12.0527L10.7322 11.9591ZM11.3302 12.8006L10.91 11.9611L10.7311 12.0507L11.1514 12.8901L11.3302 12.8006ZM11.4551 13.0488C11.4132 12.966 11.3715 12.8834 11.3303 12.8007L11.1513 12.89C11.1928 12.9732 11.2347 13.0562 11.2765 13.139L11.4551 13.0488ZM11.7035 13.5488C11.6226 13.3808 11.5386 13.2143 11.4551 13.0488L11.2765 13.139C11.3602 13.3047 11.4434 13.4695 11.5233 13.6355L11.7035 13.5488ZM12.0524 13.7947C11.9651 13.7832 11.8965 13.7576 11.8417 13.7191C11.7871 13.6809 11.7409 13.6262 11.7035 13.5486L11.5234 13.6356C11.5734 13.7392 11.6403 13.8222 11.7268 13.8829C11.8132 13.9434 11.9139 13.9781 12.0262 13.993L12.0524 13.7947ZM13.2626 13.9641C12.8599 13.9063 12.4566 13.8483 12.0525 13.7947L12.0262 13.993C12.4291 14.0464 12.8312 14.1042 13.2342 14.1621L13.2626 13.9641ZM13.725 14.0303C13.5709 14.0084 13.4168 13.9863 13.2626 13.9641L13.2342 14.1621C13.3883 14.1842 13.5426 14.2064 13.6969 14.2283L13.725 14.0303ZM13.8476 14.1428L13.7902 14.0683L13.6318 14.1904L13.6892 14.2649L13.8476 14.1428ZM13.745 14.3325C13.7689 14.3194 13.7953 14.3048 13.821 14.2889L13.7158 14.1188C13.695 14.1317 13.673 14.1438 13.6484 14.1574L13.745 14.3325ZM13.6152 14.4172C13.6476 14.3869 13.6895 14.3632 13.745 14.3325L13.6484 14.1574C13.5972 14.1857 13.5324 14.2208 13.4787 14.271L13.6152 14.4172ZM13.2283 14.7886C13.3571 14.6635 13.4852 14.5391 13.6153 14.417L13.4785 14.2712C13.3469 14.3946 13.2176 14.5202 13.089 14.6451L13.2283 14.7886ZM12.6393 15.3459C12.8409 15.1646 13.0354 14.9758 13.2283 14.7886L13.089 14.6451C12.8956 14.8328 12.7039 15.0189 12.5055 15.1972L12.6393 15.3459ZM12.445 15.9464C12.4208 15.8187 12.4241 15.7113 12.4539 15.6166C12.4835 15.5225 12.5416 15.4335 12.6392 15.346L12.5056 15.1971C12.3863 15.3041 12.3053 15.4224 12.2631 15.5566C12.221 15.6904 12.2199 15.8324 12.2485 15.9836L12.445 15.9464ZM12.6419 17.0753C12.5791 16.6993 12.516 16.3223 12.445 15.9465L12.2485 15.9836C12.3191 16.357 12.3818 16.732 12.4447 17.1083L12.6419 17.0753ZM12.7088 17.4729C12.6863 17.3405 12.6641 17.208 12.6419 17.0753L12.4447 17.1083C12.4668 17.2409 12.489 17.3737 12.5116 17.5064L12.7088 17.4729ZM12.7115 17.5498C12.7122 17.5287 12.7134 17.5016 12.7089 17.4739L12.5114 17.5055C12.5123 17.5107 12.5124 17.5174 12.5116 17.5438L12.7115 17.5498ZM12.7107 17.5953C12.7107 17.5778 12.7111 17.5633 12.7115 17.5498L12.5116 17.5438C12.5112 17.5573 12.5107 17.5744 12.5107 17.5953H12.7107ZM12.1663 17.4744C12.2983 17.543 12.4307 17.6118 12.5633 17.6833L12.6581 17.5072C12.524 17.435 12.3904 17.3655 12.2585 17.2969L12.1663 17.4744ZM11.2966 16.9934C11.5774 17.1682 11.8712 17.3209 12.1663 17.4744L12.2585 17.2969C11.9623 17.1429 11.6754 16.9937 11.4023 16.8236L11.2966 16.9934ZM10.3464 16.9908C10.5174 16.8819 10.6714 16.8334 10.8203 16.8343C10.9694 16.8352 11.1242 16.8857 11.2965 16.9933L11.4024 16.8237C11.2083 16.7025 11.0176 16.6355 10.8215 16.6343C10.625 16.6332 10.4338 16.6981 10.239 16.8221L10.3464 16.9908ZM9.59088 17.4099C9.84398 17.2795 10.102 17.1466 10.3464 16.9907L10.2389 16.8221C10.0035 16.9722 9.75374 17.101 9.49925 17.2322L9.59088 17.4099ZM9.26763 17.5788C9.37426 17.5216 9.48213 17.466 9.59088 17.4099L9.49924 17.2322C9.39074 17.2881 9.28139 17.3444 9.17303 17.4026L9.26763 17.5788ZM9.15442 17.6364C9.19608 17.6156 9.23163 17.5978 9.26694 17.5792L9.17373 17.4022C9.14059 17.4197 9.10698 17.4365 9.06491 17.4576L9.15442 17.6364Z" fill="#FFFFFF"/>
</svg>
