<svg width="18" height="22" viewBox="0 0 18 22" fill="none" xmlns="http://www.w3.org/2000/svg">
<path fill-rule="evenodd" clip-rule="evenodd" d="M8.71382 21.7422H9.28525C10.0965 21.6241 10.6775 21.1053 11.2515 20.5928C11.2695 20.5766 11.2876 20.5605 11.3057 20.5444C13.1016 18.9608 14.7342 17.2148 15.9995 15.1643C16.9179 13.7026 17.5914 12.1393 17.8567 10.4136C17.8771 10.2715 17.8975 10.1243 17.9179 9.97712C17.9383 9.82993 17.9587 9.68274 17.9791 9.54062V8.3834C17.9519 8.22098 17.927 8.05856 17.902 7.89614C17.8521 7.57131 17.8023 7.24647 17.7342 6.92164C16.9383 3.32815 13.775 0.506152 10.1016 0.100109C5.89749 -0.366841 2.10157 1.907 0.591366 5.80502C-0.163737 7.73373 -0.143327 9.70304 0.407693 11.6926C0.938306 13.5605 1.89749 15.2252 3.08116 16.7682C4.32606 18.4127 5.79545 19.8338 7.38729 21.1535C7.77504 21.4783 8.22402 21.6407 8.71382 21.7422ZM15.9606 8.42363C15.9782 8.60566 15.9959 8.78891 16.0199 8.97216C15.9791 10.6978 15.4077 12.2611 14.5302 13.7838C13.3669 15.7937 11.7955 17.4788 10.0608 19.0217C9.81586 19.2451 9.57096 19.4481 9.30566 19.6511C9.10158 19.8135 8.87709 19.8135 8.67301 19.6511C6.53015 17.8442 4.59137 15.8749 3.24443 13.3777C2.4281 11.8754 1.95871 10.3121 2.01994 8.58642C2.14239 5.48018 4.55055 2.71909 7.6526 2.13033C11.4893 1.41975 15.0608 3.7951 15.8567 7.59161C15.9063 7.86297 15.9333 8.14183 15.9606 8.42363ZM9 12.9311C11.2041 12.9108 12.9796 11.1445 12.9796 8.95184C12.9796 6.7592 11.2041 4.97261 9 4.99291C6.79592 4.99291 5 6.7592 5 8.95184C5 11.1445 6.79592 12.9311 9 12.9311ZM7 8.93154C7 7.83522 7.89796 6.96222 9 6.96222C10.102 6.96222 11 7.85552 11 8.95184C11 10.0482 10.0816 10.9415 8.9796 10.9415C7.89796 10.9212 6.97959 10.0076 7 8.93154Z" fill="#FFFFFF"/>
</svg>
