<svg width="20" height="20" viewBox="0 0 20 20" fill="none" xmlns="http://www.w3.org/2000/svg">
<path fill-rule="evenodd" clip-rule="evenodd" d="M9.84364 19.9961H10.1562C10.2069 19.9547 10.2589 19.9146 10.3109 19.8744C10.4216 19.7888 10.5323 19.7032 10.6312 19.6058C11.2985 18.9478 11.9602 18.2846 12.6192 17.6183C12.7143 17.5222 12.8099 17.4866 12.9437 17.4871C14.5512 17.4918 16.1587 17.4929 17.7662 17.4892C18.8464 17.4866 19.6956 16.836 19.9376 15.8227C19.9805 15.6413 19.9972 15.4495 19.9972 15.2624C20.0003 10.9155 20.0008 6.56905 19.9987 2.22261C19.9977 0.938584 19.0649 0.00209039 17.784 0.00156779C12.5904 -0.000522597 7.39736 -0.000522597 2.20379 0.00156779C1.09066 0.00156779 0.24144 0.713868 0.0318784 1.80662C0.028602 1.82336 0.0197468 1.8391 0.0109653 1.8547C0.00714053 1.86149 0.00332973 1.86826 0 1.87508V15.622C0.0117194 15.6627 0.0229842 15.7035 0.034244 15.7442C0.0571273 15.8271 0.0799906 15.9099 0.10661 15.9915C0.407626 16.9102 1.22131 17.4866 2.23358 17.4887C3.82802 17.4918 5.42247 17.4913 7.01691 17.4866C7.17735 17.4861 7.29284 17.5253 7.40938 17.6439C8.06106 18.3081 8.72005 18.9656 9.38271 19.6188C9.47961 19.7139 9.5881 19.7975 9.6965 19.8809C9.74594 19.919 9.79535 19.957 9.84364 19.9961ZM10.5556 18.0316C10.3717 18.2154 10.1866 18.4005 9.9999 18.5877L9.90833 18.4956C9.54188 18.1267 9.19103 17.7736 8.83973 17.4213C8.75552 17.3366 8.67017 17.2528 8.5848 17.1691C8.40527 16.9929 8.22565 16.8167 8.05636 16.6311C7.84784 16.4022 7.6111 16.3108 7.29911 16.3129C6.02015 16.3217 4.74149 16.3204 3.46266 16.319C3.07511 16.3186 2.68754 16.3182 2.29995 16.3181C1.55838 16.3176 1.17219 15.9293 1.17219 15.1851V2.29943C1.17219 1.55316 1.5542 1.17219 2.30204 1.17219H17.7087C18.4404 1.17219 18.8276 1.55943 18.8276 2.29107V15.1961C18.8276 15.9251 18.4362 16.3181 17.7082 16.3181C17.2884 16.3181 16.8686 16.3184 16.4488 16.3186C15.1893 16.3194 13.9297 16.3202 12.6704 16.3139C12.3892 16.3123 12.1744 16.397 11.9779 16.5982C11.5107 17.0768 11.0377 17.5496 10.5556 18.0316ZM6.44633 12.5572C6.41713 12.7288 6.38872 12.8957 6.36142 13.0555C6.35411 13.586 6.80772 13.8598 7.24148 13.6361C8.10794 13.1888 8.97075 12.7347 9.83095 12.2758C9.95323 12.211 10.0452 12.2063 10.1691 12.2727C10.624 12.516 11.0808 12.756 11.5376 12.9961C11.9267 13.2006 12.3157 13.4051 12.7037 13.6116C12.942 13.7386 13.174 13.7683 13.4008 13.6063C13.6302 13.4428 13.6699 13.2081 13.624 12.9453C13.5611 12.5859 13.4989 12.2265 13.4366 11.867C13.3358 11.2849 13.2351 10.7027 13.1317 10.1211C13.1076 9.98475 13.14 9.89329 13.2409 9.79661C13.9213 9.14284 14.5976 8.48437 15.2696 7.82171C15.3642 7.72817 15.4577 7.61477 15.5011 7.49248C15.6344 7.11621 15.3841 6.78697 14.9362 6.72217C14.7346 6.69308 14.533 6.66388 14.3314 6.63469C13.6062 6.52966 12.8813 6.42466 12.1555 6.32447C11.9867 6.30096 11.8863 6.23668 11.809 6.0752C11.5773 5.59073 11.3394 5.10924 11.1014 4.62768C10.9276 4.27602 10.7538 3.92433 10.5824 3.57143C10.4586 3.31693 10.2887 3.13559 9.99138 3.13925C9.70343 3.1429 9.53934 3.3232 9.41914 3.57039C9.22361 3.97228 9.02576 4.37313 8.82789 4.77403C8.60584 5.2239 8.38377 5.67383 8.16491 6.12537C8.10637 6.24556 8.03321 6.29834 7.90518 6.31611C6.96502 6.44781 6.02487 6.58211 5.08629 6.72269C4.96086 6.74151 4.82603 6.77495 4.72099 6.84185C4.39071 7.05193 4.37817 7.47941 4.68598 7.78043C5.37894 8.45876 6.07295 9.13605 6.77166 9.80863C6.86207 9.8959 6.89395 9.97743 6.87148 10.0992C6.80054 10.4868 6.73403 10.8752 6.66755 11.2633C6.65175 11.3556 6.63596 11.4478 6.62011 11.54C6.56077 11.8847 6.5021 12.2295 6.44633 12.5572ZM6.34392 7.7509C6.34666 7.74163 6.3494 7.73235 6.35202 7.72294C6.57807 7.68973 6.80427 7.65667 7.03054 7.6236C7.22799 7.59474 7.42548 7.56588 7.62297 7.5369C7.67447 7.52946 7.72596 7.52201 7.77743 7.51456C8.01534 7.48011 8.25308 7.4457 8.49153 7.41304C8.74342 7.37855 8.91692 7.24843 9.02928 7.01639C9.25143 6.55717 9.47837 6.10008 9.71088 5.63179C9.80382 5.44459 9.89766 5.2556 9.99243 5.06397C10.0055 5.08606 10.0176 5.10564 10.0287 5.12367C10.0511 5.16025 10.0697 5.19046 10.0855 5.22232C10.1619 5.37644 10.2387 5.53038 10.3156 5.68432C10.5318 6.11761 10.7481 6.5509 10.9556 6.98817C11.0836 7.25836 11.2827 7.38482 11.5733 7.42245C12.0691 7.4863 12.5638 7.55937 13.0586 7.63246C13.2198 7.65628 13.3811 7.6801 13.5424 7.70361C13.5668 7.70709 13.5902 7.71566 13.617 7.72548C13.6305 7.7304 13.6448 7.73565 13.6605 7.74071C13.6054 7.79623 13.5514 7.85091 13.4982 7.90488C13.388 8.01655 13.2808 8.1252 13.1719 8.23195C12.8139 8.58314 12.4554 8.93276 12.0954 9.28133C11.9281 9.44333 11.8623 9.63147 11.9036 9.86403C11.9971 10.3938 12.0867 10.9242 12.1763 11.4545C12.1993 11.5906 12.2223 11.7268 12.2453 11.863C12.2511 11.8976 12.2551 11.9322 12.2604 11.978C12.2628 11.9992 12.2655 12.0229 12.2689 12.05C12.2403 12.0362 12.2141 12.0236 12.1896 12.0119C12.1364 11.9864 12.0909 11.9646 12.0462 11.9413C11.8881 11.8583 11.7298 11.7755 11.5714 11.6928C11.1652 11.4805 10.7589 11.2683 10.3562 11.0498C10.109 10.916 9.88268 10.9202 9.63654 11.054C9.22862 11.2759 8.8168 11.4911 8.40495 11.7063C8.25223 11.7861 8.09951 11.8659 7.94698 11.9461C7.90685 11.967 7.86629 11.9868 7.81588 12.0114C7.78817 12.0249 7.75749 12.0399 7.72227 12.0574C7.75326 11.8741 7.783 11.6988 7.81201 11.5278C7.84514 11.3325 7.87732 11.1428 7.90936 10.9531C7.92925 10.8364 7.94854 10.7196 7.96784 10.6028C8.00783 10.3605 8.04783 10.1182 8.09331 9.87709C8.14034 9.62886 8.06352 9.43393 7.88584 9.26252C7.61127 8.99776 7.33815 8.73138 7.06498 8.46497C6.87229 8.27704 6.67957 8.08909 6.48632 7.90167C6.45491 7.87132 6.42016 7.84454 6.38545 7.81779C6.36877 7.80494 6.3521 7.79209 6.33582 7.77886C6.33843 7.76946 6.34117 7.76018 6.34392 7.7509Z" fill="#FFFFFF"/>
</svg>
