<svg width="17" height="22" viewBox="0 0 17 22" fill="none" xmlns="http://www.w3.org/2000/svg">
<path fill-rule="evenodd" clip-rule="evenodd" d="M10.2922 21.7H10.6139C10.6765 21.6373 10.7474 21.5828 10.82 21.5268C10.9337 21.4393 11.0518 21.3484 11.1499 21.2176C11.6859 20.5743 12.222 19.8774 12.758 19.1806L12.7581 19.1805C12.8117 19.0733 12.9189 19.0733 13.0261 19.1269C13.4281 19.2878 13.8436 19.462 14.259 19.6362C14.6745 19.8104 15.0899 19.9846 15.4919 20.1454C15.76 20.2527 16.028 20.3063 16.2424 20.0918C16.4568 19.8774 16.4568 19.6094 16.4032 19.3414C16.1084 18.2693 15.8136 17.1838 15.5187 16.0982C15.2239 15.0127 14.9291 13.9272 14.6342 12.8551C14.5806 12.6943 14.5806 12.5871 14.6879 12.4799C17.9578 7.76262 15.3311 1.27638 9.70256 0.150668C5.36053 -0.707017 1.17932 2.18767 0.428842 6.5297C0.107211 8.67391 0.536053 10.6573 1.76898 12.4263C1.82258 12.5335 1.82258 12.6407 1.82258 12.7479L0.0536053 19.3414C0.0536053 19.3682 0.040204 19.3816 0.0268027 19.395C0.0134013 19.4084 0 19.4218 0 19.4486V19.7702C0.268027 20.3063 0.536053 20.3599 1.07211 20.1454C1.55043 19.9541 2.02875 19.7438 2.47323 19.5484C2.77593 19.4153 3.06292 19.2891 3.32353 19.1805C3.43074 19.1269 3.48434 19.1269 3.59156 19.2342C4.12761 19.8774 4.66366 20.5743 5.19971 21.2712C5.28012 21.3516 5.36053 21.4186 5.44094 21.4856C5.52135 21.5526 5.60176 21.6196 5.68216 21.7H6.00379C6.32543 21.5928 6.48624 21.3784 6.53985 21.0567C6.75427 20.2259 6.98209 19.3816 7.20991 18.5373C7.43774 17.693 7.66556 16.8487 7.87998 16.0178C7.93359 15.857 7.98719 15.857 8.14801 15.857C8.30882 15.8034 8.36243 15.857 8.41603 16.0178C8.63045 16.8487 8.85828 17.693 9.0861 18.5373C9.31392 19.3816 9.54175 20.2259 9.75617 21.0567C9.86338 21.3784 9.97059 21.5928 10.2922 21.7ZM14.8487 7.92344C14.8487 11.5686 11.8468 14.5705 8.20161 14.5705C4.55645 14.5705 1.55455 11.5686 1.55455 7.92344C1.55455 4.22467 4.55645 1.27638 8.20161 1.27638C11.9004 1.27638 14.8487 4.27828 14.8487 7.92344ZM1.74217 18.4837C1.70197 18.4971 1.66176 18.5105 1.60816 18.5373C2.037 16.9291 2.46584 15.321 2.94829 13.7664C4.074 14.7849 5.36053 15.4282 6.80787 15.6962C6.59127 16.4388 6.39253 17.1815 6.19103 17.9344C6.04346 18.4859 5.8944 19.0428 5.73577 19.6094C5.66429 19.5737 5.64047 19.5379 5.61664 19.5022C5.60473 19.4843 5.59282 19.4664 5.57495 19.4486C5.19971 18.9125 4.82448 18.4301 4.44924 17.9476C4.18121 17.626 3.91319 17.5724 3.53795 17.7332C3.26993 17.8404 2.98851 17.961 2.70709 18.0816C2.42566 18.2022 2.14422 18.3229 1.87619 18.4301C1.82258 18.4569 1.78238 18.4703 1.74217 18.4837ZM13.5621 13.7664C13.991 15.321 14.4198 16.9291 14.8487 18.5373C14.2054 18.2693 13.5621 18.0012 12.9725 17.7868C12.5436 17.626 12.3292 17.6796 12.0076 18.0548C11.7694 18.327 11.5529 18.6208 11.3305 18.9224C11.2025 19.0961 11.0726 19.2723 10.9355 19.4486C10.9087 19.5022 10.8819 19.529 10.8551 19.5558C10.8283 19.5826 10.8015 19.6094 10.7747 19.663C10.587 18.9929 10.4128 18.3363 10.2386 17.6796C10.0644 17.0229 9.89018 16.3663 9.70256 15.6962C11.1499 15.4282 12.4364 14.7849 13.5621 13.7664ZM10.7473 12.2923C10.8143 12.3191 10.8813 12.3459 10.9349 12.3727C11.4174 12.3191 11.6854 11.9438 11.739 11.4614C11.5246 10.6573 11.3102 9.79966 11.0958 8.94199L11.0958 8.94194C11.0422 8.78113 11.0958 8.72752 11.203 8.62031C11.5246 8.35228 11.8597 8.07084 12.1947 7.78941C12.5297 7.50799 12.8647 7.22657 13.1864 6.95855C13.4008 6.74412 13.508 6.4761 13.4008 6.20807C13.2936 5.94005 13.0256 5.77923 12.7575 5.77923C12.3287 5.75243 11.8864 5.72562 11.4442 5.69882C11.002 5.67202 10.5597 5.64522 10.1309 5.61841C9.97005 5.61841 9.91645 5.56481 9.86284 5.4576C9.70203 5.05557 9.54122 4.66694 9.3804 4.27831C9.21958 3.88966 9.05876 3.50101 8.89795 3.09896C8.89795 3.07216 8.88454 3.05876 8.87114 3.04536C8.85774 3.03196 8.84434 3.01856 8.84434 2.99175C8.73713 2.77733 8.52271 2.61652 8.25468 2.61652C7.98665 2.61652 7.77223 2.77733 7.66502 3.04536C7.28979 3.84944 6.96815 4.65352 6.64652 5.5112C6.59292 5.61841 6.53931 5.67202 6.4321 5.67202L3.85905 5.83283C3.48381 5.83283 3.21578 5.99365 3.16218 6.26168C3.05497 6.58331 3.16218 6.79773 3.4302 7.01215C4.127 7.60175 4.77021 8.13776 5.41341 8.67376L5.4136 8.67392C5.52081 8.78113 5.57442 8.83473 5.52081 8.99555C5.4136 9.42439 5.30639 9.83983 5.19918 10.2553C5.09197 10.6707 4.98476 11.0862 4.87755 11.515C4.77034 11.8902 4.93115 12.2119 5.25278 12.3191C5.52081 12.3727 5.68163 12.3191 5.89605 12.2119C6.59292 11.783 7.28979 11.3542 7.98665 10.8717C8.14747 10.7645 8.30829 10.7645 8.4691 10.8717C9.16597 11.3542 9.86284 11.783 10.5597 12.2119C10.6133 12.2387 10.6803 12.2655 10.7473 12.2923ZM8.15714 5.02392C8.16795 4.99563 8.1806 4.9625 8.20108 4.92154C8.25578 5.06741 8.31048 5.20088 8.36096 5.32405C8.45889 5.56299 8.54094 5.76319 8.57631 5.94005C8.60312 6.02046 8.62992 6.08746 8.65672 6.15447C8.68353 6.22148 8.71033 6.28848 8.73713 6.36889C8.84434 6.58331 9.05876 6.74412 9.32679 6.74412C9.54121 6.77093 9.76903 6.78433 9.99686 6.79773C10.2247 6.81113 10.4525 6.82453 10.6669 6.85134C10.7741 6.90494 10.8277 6.90494 10.9885 6.90494H10.9886C10.8656 7.00328 10.7653 7.09034 10.6719 7.1713C10.5617 7.26687 10.4614 7.35393 10.3453 7.44099C10.2381 7.5214 10.1443 7.60181 10.0505 7.68222C9.95665 7.76263 9.86284 7.84303 9.75563 7.92344C9.4876 8.13786 9.38039 8.40589 9.4876 8.72752C9.54121 8.96874 9.59481 9.19657 9.64842 9.42439C9.70202 9.65221 9.75563 9.88004 9.80923 10.1213C9.86284 10.1749 9.86284 10.1749 9.86284 10.2821C9.76189 10.2484 9.68207 10.1937 9.61011 10.1443C9.56743 10.115 9.52752 10.0876 9.4876 10.0677C9.16597 9.90684 8.84434 9.69242 8.52271 9.478C8.25468 9.31718 7.98665 9.31718 7.71863 9.478C7.28979 9.74602 6.86094 10.014 6.3785 10.3357C6.40294 10.2501 6.42738 10.1674 6.45119 10.0867C6.53181 9.81378 6.60514 9.56548 6.64652 9.31718C6.67332 9.23677 6.70013 9.14296 6.72693 9.04915C6.75373 8.95534 6.78054 8.86153 6.80734 8.78113C6.86094 8.5131 6.80734 8.24507 6.53931 8.03065L6.53918 8.03054C6.16399 7.70895 5.78879 7.38735 5.35999 7.01215C5.46721 6.95855 5.57442 6.95855 5.62802 6.95855C6.05686 6.90494 6.53931 6.85134 6.96815 6.85134C7.28979 6.79773 7.50421 6.63691 7.61142 6.36889C7.77223 5.99365 7.93305 5.56481 8.09387 5.13597C8.127 5.10284 8.13965 5.06971 8.15714 5.02392Z" fill="#FFFFFF"/>
</svg>
